<svg xmlns="http://www.w3.org/2000/svg" version="1.1" width="600px" height="600px" viewBox="0 0 200 200" style="overflow:hidden!important;"><g id="svga-group-wrapper"><g id="svga-group-backs-single"><path id="SvgjsPath9977" d="M0 0h200v200H0V0z" fill="#ecf0f1" stroke-width="none" opacity="1"></path></g><g id="svga-group-humanwrap-move" transform="matrix(1,0,0,1,0,0)"><g id="svga-group-humanwrap"><g id="svga-group-hair-back-move" transform="matrix(1,0,0,1,0,0)"><g id="svga-group-hair-back"><path id="SvgjsPath10312" d="M171 148.7c.2 5.7 2.3 13.4-2.7 17.6-4.7 4-12.1 1.8-17.5 1.3-.6-.1-1.6-.1-2.4 0 1.1-.6 2.1-1.4 3-2.4 4-4.4 1.7-9.1-2.3-12 0-.5 0-1.1-.1-1.6 1.9-.2 3.7-.5 5.6-.8 4.9-.8 3.6-8.6-1.1-8.5-2.4 0-4.8.1-7.1.1 1.1-1.8 1-4.4-.3-6.2 1.8-10.1 2.5-20.4 1.6-30.6-.4-4-.2-9.7-4.2-12.1-4.1-2.5-11.4-1.3-16.1-1.4-23.7-.6-47.4-1.4-71.2-2.1-2.6-.1-5.5 2.5-5.2 5.2 1.2 9.3 2.3 18.6 3.6 27.8.6 4.4 1.3 8.8 2.1 13.2.5 3.2.7 7.5 3.4 9.7-1.3 0-2.6.1-3.9.4-2.2.5-3.7 3.2-3 5.3.5 1.7 1.6 2.8 2.9 3.6-1.5.7-2.2 3.1-.3 4.1-1.1.3-2 1.1-2 2.5 0 1 .2 2 .5 2.9-.9.3-2.2.2-3.1.2-2.7-.1-5.5-.6-8.2-.8-1.1-.1-2.4-.3-3.4.3-1.3.8-1.5 2.5-2.2 3.8-3.9 2-5.7.2-4.7 5.6 0 .1.3.1.3 0 0-3.6 2.6-2.9 4.8-3.4.3-.2.7-.5 1-.8 1-1.3 2.5-2 4.6-1.9 1.4.1 2.8.8 4.2.9 2.4.2 5.7-.3 7.4-2 1.1 2.1 2.8 3.9 4.8 5.1h-.2c-5.6-.4-1.9 1.7-5.2 4.6-.2.2 0 .7.3.6 1.8-.6.5-.1 2-1.3.4-.3.1-1.3.4-1.5 2.1-1.5 6.9.7 9.5.4 2.8-.3 5.2-1.7 7.2-3.6.7-.5 1.4-1 2-1.6 1 .6 2.1 1 3.2 1.2 1.7 1.8 4.1 2.7 6.9 2.9 2.6.2 5.3-.1 7.9-.7 1.4-.4 2.8-.8 4.1-1.4 1.4-.6 1.9-.9 2.9-.7 1.9.4 3.5 1.8 5.6 2 2 .3 4.1.1 6.1-.5 2.1-.6 4.1-1.8 5.7-3.3.7-.7 1.4-1.5 1.9-2.3 0-.1.1-.1.1-.2h.1c2.1 1 4 2.5 6.8 2.4.8 0 1.5-.1 2.2-.3.1.1.2.3.3.4.1.1.2.3.3.4.1.1.2.2.3.4l.2.2c.1.1.2.1.3.2l.2.2c.9.7 2.7 1.7 3.8 1 1.2.4 2.4.5 3.7.2.5-.1.5-.9 0-1-1.7-.4-3.4-.5-5-1.5-.2-.1-.4-.3-.6-.5-.1-.4-.3-.8-.3-1.2l.6-.3c3.8 2.1 8.5 2.9 12.7 1.7-.1.1-.2.3-.3.5-1.1 2.4 3.2 3.6 1.4 6.2-.4.6.4 1.1.9.7 1-.8 1.6-1.6 1.6-2.9 0-.7-1.2-2.2-1.2-2.5.2-1.9 7-.1 8.6.1 2.2.2 4.5.1 6.7-.3 3.3-.7 7.7-2.2 9.4-5.4 2.2-4.4.2-11.7-.7-16.3-.3-.7-1.2-.6-1.2 0zm16.6-7.1c-.1-.6-.9-.8-1.1-.1-4.2 1.3-6.2.4-5.9-2.4-.1-.6-.2-1.1-.4-1.7-.2-.5-.5-1-.9-1.4-.7-.8-1.7-1.1-2.5-1.8-.5-.3-1-.6-1.5-.8-2.1-2.4-2.7-4.9-1.6-7.4 1-4 4.3-8.8-.3-11.8-.5-.3-.9.4-.6.8 4.1 4.7-3 10.9-1.7 16.2.3 1.4 1 2.4 2 3.3.6.6 1.4.8 2 1.3 2.1 1.7 2.7 3.7 3.4 6.2.6 2.3 1.6 4.5 4.5 4.6 3.1.1 4.9-2.3 4.6-5z" fill="#0b0b09" stroke-width="none" opacity="1"></path></g></g><g id="svga-group-humanbody-back"><path id="SvgjsPath10045" d="M77.8 105.9s4.8 37.7 10 55.8c0 0-6.4 8.8-14.5 11.9-28.7 11.2-35 11.2-39.6 15.2-2.4 2.1.2 11.1 1.8 17.2 1.3 5 1.7 13.2 1.7 13.2h132.2s1.6-33-.6-39.8-7.1-2.9-21.9-4.5c-14.8-1.6-28.7-10.3-31-13.2l.3-60-38.4 4.2z" fill="#f3d4cf" stroke-width="none" opacity="1" stroke="none"></path></g><g id="svga-group-chinshadow-single"><path id="SvgjsPath10041" d="M86.1 156.4c4.7.8 10.3 1 10.3 1s11.6-.6 15.5-2.3c.7-.3 2.1-1.4 3.7-2.8l.3-50.7-38.4 4.2s4 31.4 8.6 50.6z" fill="#d4958a" stroke-width="none" opacity="1" stroke="none"></path></g><g id="svga-group-humanbody-front"><path id="SvgjsPath10046" d="M72.1 183.1s14.6-.2 20.4 2.6c5.8 2.9 12.7 2.4 16.1-1s21.6-7 21.6-7-19.7 1.9-25 4.6c-5.3 2.7-22.3-2.8-33.1.8z" fill="#d4958a" stroke-width="none" opacity="1" stroke="none"></path><path id="SvgjsPath10047" d="M74.2 173.2c6.7-1.3 14.7-6.4 14.7-6.4l6.2 5.5c-4.3-7.9-12.7-41.1-12.7-41.1l-.7.7c1.7 10.5 3.9 21.9 6.1 29.7 0 0-6 8.2-13.6 11.6z" fill="#d4958a" stroke-width="none" opacity="1" stroke="none"></path><path id="SvgjsPath10048" d="M170.7 188.5c-.1-2.1-.2-4.1-.4-6.2-.1-1-.3-2.1-.6-3.2-.2-.5-.4-1-.6-1.6-.2-.5-.6-1-1-1.5s-.9-.9-1.5-1.1c-.6-.3-1.1-.4-1.7-.6-1.1-.2-2.2-.2-3.2-.2-2.1 0-4.1.1-6.1.1s-4-.1-6-.2-4-.4-6-.7c-1-.2-2-.4-2.9-.6l-1.5-.4c-.5-.1-1-.3-1.4-.4-3.8-1.1-7.6-2.6-11.2-4.4l-1.3-.7-1.3-.7c-.4-.2-.9-.5-1.3-.8s-.9-.5-1.3-.8-.8-.5-1.3-.8l-1.2-.9-.6-.5-.3-.2-.3-.2c-.2-.2-.4-.3-.5-.5l-.2-.3v-44.6l-.1-15v-.6l-.6.1c-6.4.8-12.9 1.5-19.3 2.3l-19.1 2.3v.5l.1.4.1.9.2 1.8c.1 1.2.3 2.3.4 3.5l.9 7c.6 4.7 1.3 9.4 2.1 14 .8 4.7 1.5 9.3 2.5 14 .9 4.5 1.8 9 3 13.5-1.1 1.4-2.3 2.7-3.6 4-1.3 1.3-2.8 2.6-4.3 3.8-1.5 1.1-3.1 2.2-4.8 3l-1.3.6c-.4.2-.9.3-1.3.5l-2.7 1c-7.2 2.7-14.5 5.3-21.8 7.7l-5.5 1.8c-1.8.6-3.7 1.3-5.5 2.2-.4.2-.9.5-1.3.7-.4.3-.9.5-1.3.9l-.6.5c-.2.2-.5.5-.6.8-.3.5-.4 1.1-.5 1.6-.2 1.1-.1 2.1 0 3.1s.3 2 .4 2.9c.4 1.9.8 3.8 1.3 5.7l.8 2.8c.3.9.5 1.8.7 2.8.4 1.9.7 3.8.9 5.7s.4 3.8.5 5.7v.8h133.4v-.8c.2-4.1.4-8.2.5-12.3s.2-8.2.2-12.3c0-1.8-.1-3.8-.1-5.9zm-67.4 30.3H70.2l-16.5-.1-16-.1c-.1-1.8-.2-3.5-.4-5.3-.2-1.9-.4-3.9-.8-5.8-.2-1-.4-1.9-.7-2.9l-.7-2.8c-.5-1.9-.9-3.7-1.2-5.6-.2-.9-.3-1.9-.4-2.8-.1-.9-.1-1.9 0-2.7.1-.4.2-.8.4-1.1.1-.2.2-.3.3-.4l.5-.4c.3-.3.7-.5 1.1-.8.4-.2.8-.5 1.2-.7 1.7-.8 3.5-1.4 5.3-2l5.5-1.8c7.3-2.4 14.6-5 21.8-7.8l2.7-1c.5-.2.9-.3 1.4-.5l1.4-.6c1.8-.9 3.4-2 5-3.2s3-2.5 4.4-3.9 2.7-2.9 3.8-4.5l.2-.3-.1-.3c-1.3-4.5-2.3-9.1-3.3-13.7s-1.9-9.3-2.7-13.9c-.8-4.6-1.6-9.3-2.4-14l-2.2-13.9 19.3-1.8c6.2-.6 12.3-1.2 18.5-1.8l-.2 14.4-.2 15-.3 30v.4l.2.2.6.7.6.6.3.3.3.2.6.5c.4.3.9.6 1.3.9.4.3.9.6 1.3.9.4.3.9.5 1.3.8s.9.5 1.3.8l1.4.8 1.4.7c.5.2.9.5 1.4.7l1.4.7c1 .4 1.9.8 2.9 1.2s1.9.8 2.9 1.1l1.5.5c.5.2 1 .3 1.5.4.5.1 1 .3 1.5.4l1.5.4c1 .3 2 .4 3 .6 2 .4 4.1.6 6.2.8 2.1.2 4.1.2 6.2.2 2.1 0 4.1-.1 6.1-.1s4 .1 5 1.3c.5.6.9 1.4 1.2 2.3.3.9.4 1.9.6 2.8.3 2 .4 4 .5 6s.1 4.1.2 6.1c.1 7.9-.1 15.8-.4 23.7-10.8.1-21.5.1-32.3.2h-33.1z" fill="#c5796d" stroke-width="none" opacity="1" stroke="none"></path><path id="SvgjsPath10049" d="M150.7 219.2 147 198l-.4 21.2z" fill="#d4958a" stroke-width="none" opacity="1" stroke="none"></path><path id="SvgjsPath10050" d="M47.3 203.5s2.2 11.5 2.9 15.7h3.5l-6.4-15.7z" fill="#d4958a" stroke-width="none" opacity="1" stroke="none"></path></g><g id="svga-group-clothes-single"><path id="SvgjsPath10756" d="M31.7 194.7c0 2.7-1.2 11.2-5.1 15.7 0 0 5.4-2 7.2.5 1.8 2.5 2.1 4.8 5.9 2.4 3.8-2.3 4.9-.3 5.8.4.9.7 3.3 1.4 5 .1s3.2-.5 4.3.9 3.9 2.1 7.7.5 6 .5 9.8 1c3.9.5 7.8.4 8.6-.1s2.8-2 4.3-1.9 2.8 1.9 4 2.5 3.1-.8 3.9-1.3 2.2-.1 3.6.5 8.9-.2 8.9-.2.3 1.6 1.8 1.6 2.4-2 2.4-2 .3.8 2.9.3 6.8-2.7 8-2.7 2.6-.1 3.3.9.4 2 1.9 2.3 2.5.5 4.9-.7 4-2.5 6.4-.8c0 0 1.2 3.1 4.7 2.2s2.5-2.4 4.4-2.4 4.7 1.4 6.1 1.1 2.5-1.5 2.9-2.4c.4-.9 1.1-3.1 3.5-3.3 0 0 2.5 1.1 4.2-.2s2.6-2.6 4.5-3.7 4.9.3 6 0 2.6-1.4 2.8-2.9.7-2.6 1-3.4c.3-.9 2-1.4 2-1.4s-5.6-8.4-6.4-9.8-2.3-4.3-2.3-4.3-5.2 6.4-26.4 9.3c-13.2 1.8-33.6 3.8-47.6 4.3s-43.4 1.4-52.5-.1c-8.8-1.5-12.4-2.9-12.4-2.9z" fill="#84bbfb" stroke-width="none" opacity="1" stroke="none"></path><path id="SvgjsPath10757" d="M137.2 193.6c-11.7 1.3-23.5 2.4-35.2 3.1-11.8.7-23.5 1.1-35.3 1.3-5.9.1-11.8.1-17.7-.3-5.9-.3-11.7-1.3-17.3-3.1 5.5 2.2 11.4 3.4 17.2 4 5.9.6 11.8.8 17.7.9 11.8.2 23.7-.1 35.5-.8 11.8-.7 23.6-1.9 35.3-3.5 5.8-.8 11.7-1.6 17.5-3.1 5.7-1.5 11.4-3.9 15.7-8-4.6 3.7-10.2 5.9-15.9 7.1-5.7 1.2-11.6 1.7-17.5 2.4zm-107.9 9.3c-.5 1.3-1 2.6-1.5 4s-1.1 2.6-1.7 4.1c1.2-.9 2.2-2.1 3-3.3.8-1.2 1.5-2.6 2-4s.8-2.9.9-4.4c.1-1.5 0-3-.5-4.5-.4 1.5-.7 2.9-1.1 4.2-.2 1.2-.6 2.5-1.1 3.9zm.2 7.7c1.1.1 2.1.3 3 .8.4.2.8.6 1.1.9.3.4.5.7.7 1.3.3.5.6 1.2 1.4 1.7s1.8.5 2.5.2c.7-.2 1.3-.6 1.8-1s.9-.7 1.3-1c.4-.3.7-.4 1.1-.4.4 0 .9.1 1.3.3.9.4 1.9 1.1 3.2 1.5.6.2 1.3.2 1.9 0 .6-.2 1.1-.6 1.3-1.2-.8.9-2 .8-2.9.3-.9-.5-1.7-1.3-2.8-1.9-.5-.3-1.2-.6-2-.7-.8-.1-1.6.2-2.2.5-.6.3-1.1.7-1.5 1.1-.4.3-.8.5-1.2.6-.4.1-.7.1-.8 0-.2-.1-.5-.4-.7-.9-.3-.5-.7-1.1-1.2-1.6s-1.1-.9-1.7-1.1c-.6-.2-1.2-.4-1.9-.4s-1.2 0-1.8.1c-1.2.2-2.4.6-3.3 1.3 1.2-.4 2.3-.6 3.4-.4zM52 209c.1-.9.1-1.7 0-2.6-.1-.9-.2-1.8-.6-2.6-.5.8-.8 1.7-1 2.5-.2.9-.4 1.7-.4 2.6s-.1 1.7 0 2.6c.1.8.2 1.6.5 2.4 0 .1-.1.1-.1.2 0-.1.1-.1.1-.1v.1c.1-.1.2-.3.2-.4.4-.3.9-.3 1.3-.2.6.1 1.2.4 1.6.8.5.4.9.9 1.4 1.4.5.5 1.1 1 1.9 1.3.8.3 1.6.3 2.3.2.8-.1 1.5-.3 2.1-.5.7-.2 1.3-.4 1.9-.6.6-.1 1.2-.2 1.8-.2 2.4 0 5 1 7.9 1.3 2.8.3 5.7.1 8.3-.6l.6-.2-.1-.6c-.5-2.4-1.1-4.7-1.8-7 .1 2.2.3 4.4.5 6.6-1.1.1-2.2.2-3.4.2-1.3 0-2.6-.1-3.9-.3-2.6-.3-5.1-1.4-8.2-1.3-3.2.1-5.5 2.3-7.7 1.8-1.1-.2-2-1.3-3.2-2.1-.6-.4-1.4-.6-2.1-.6-.4 0-.8.1-1.2.4.3-.6.5-1.2.6-1.8.4-1 .6-1.8.7-2.7zm123.5-18.2c-.7-1.1-1.5-2.3-2.3-3.4s-1.6-2.2-2.5-3.3c.2 1.4.6 2.8 1.2 4.1s1.2 2.6 2 3.7c.8 1.2 1.6 2.3 2.5 3.4.9 1.1 1.9 2.1 3 2.9-.5-1.4-1.1-2.6-1.8-3.8-.7-1.3-1.4-2.4-2.1-3.6zm3 7.5c-.3.1-.6.3-.8.4-.5.4-.8.9-1.1 1.4-.6 1-.9 2.2-1.4 3.1-.5.9-1 1.5-1.8 1.5-.7.1-1.8-.3-3-.5-.6-.1-1.4-.1-2.1.1-.7.2-1.3.5-1.8.9-1 .7-1.8 1.6-2.5 2.5-.7.8-1.4 1.6-2.3 2-.8.4-1.8.6-2.8.3-.2-1.2-.5-2.3-.9-3.4-.3-1.1-.7-2.2-1.1-3.2s-.8-2.1-1.2-3.2c-.4-1.1-.9-2.1-1.4-3.2-.2 1.2-.2 2.4-.1 3.6.1 1.2.4 2.4.8 3.5s.9 2.2 1.5 3.2 1.3 1.9 2.2 2.7c-.1 0-.1 0-.2-.1.8.9 2.2 1 3.4.7 1.2-.3 2.2-1.1 3.1-1.9 1.7-1.5 3.2-2.9 5-2.6.5.1 1 .2 1.6.3.6.1 1.2.2 2 .1.7-.1 1.5-.5 1.9-1.1.5-.5.8-1.2.9-1.7.4-1.2.5-2.3.8-3.2.3-1 .8-2.1 1.9-2.3 0-.1-.3 0-.6.1zm-21.7 12.2c-.6.3-1.1.8-1.5 1.4-.7 1.1-1.3 2.3-2.1 2.6-.8.4-1.8.1-3-.4-.6-.2-1.2-.4-1.9-.6-.7-.1-1.6-.2-2.3 0-1.5.4-2.5 1.3-3.5 1.9-1 .6-1.9.8-2.8.4-.9-.4-1.8-1.3-2.2-2.3-.5-1.1-.8-2.3-1.1-3.6-.1 1.3-.1 2.6.2 3.9v.1c-.2-.1-.4-.2-.6-.2-.7-.2-1.4-.2-2 0-1.4.3-2.5 1.1-3.6 1.6-.6.3-1.1.5-1.6.6-.6.1-1.1.1-1.6 0s-.8-.4-1.1-.8c-.3-.4-.5-1.1-1-1.7-.5-.6-1.3-1.1-2-1.3-.8-.2-1.5-.3-2.3-.2-1.5.1-2.8.8-3.9 1.4-1.2.6-2.2 1.2-3.3 1.4-1.1.2-2.2.1-2.9-.4l-.9-.7-.6.9c-.4.6-.8 1.2-1.3 1.6-.5.3-.8.3-1.1-.1-.3-.4-.6-1.2-.9-2l-.8-2.4c-1.2-3.1-2.4-6.2-3.7-9.3.7 3.3 1.6 6.5 2.4 9.7l.7 2.4.3 1.1c-1.8-.2-3.6-.3-5.3-.4-1.1-.1-2.2 0-2.8-.3-.3-.1-.8-.4-1.5-.7-.3-.1-.8-.2-1.2-.1-.4.1-.8.2-1.1.3-.6.3-1.1.6-1.5.9-.4.3-.8.5-1 .5-.2 0-.3 0-.6-.3s-.8-.9-1.3-1.2c-1.1-.7-2.4-.8-3.6-.5-1.2.3-2.2 1-2.7 2 1.7-1.4 4-1.3 5.3-.2.3.3.5.6.9 1.1.2.2.4.5.8.8.4.2.8.3 1.3.3.9-.1 1.4-.5 1.9-.8.5-.3.9-.6 1.2-.8.4-.2.6-.2.8-.1.3.1.8.4 1.4.6.7.2 1.3.2 1.9.2.6 0 1.1-.1 1.6-.1 1.8-.2 3.6-.4 5.4-.8.1.4.3.8.6 1.2.3.5.9.9 1.6 1 .7.1 1.3-.1 1.8-.4.6-.4 1.1-.8 1.4-1.3.4.2.9.4 1.3.4.8.1 1.5.1 2.2-.1 1.5-.3 2.7-1 3.8-1.6 1.1-.6 2.2-1.1 3.2-1.3 1.1-.1 2.2.1 2.8.7.3.3.5.9 1 1.5.5.7 1.3 1.1 2.1 1.2 1.5.3 3-.4 4.1-1.1 1.1-.7 2.1-1.5 3.2-1.9.8-.3 1.7-.4 2.6-.1.4 1.2 1.1 2.3 2.3 3 .6.4 1.5.6 2.3.5.8-.1 1.5-.3 2.1-.6 1.2-.6 2.2-1.4 3.2-1.6.3-.1.7-.1 1.1-.1l.4 3.2c-7.9.1-15.8.2-23.7.2-8.1 0-16.2-.3-24.3-.4-8.1-.2-16.2-.1-24.3-.1-8 .1-16 .2-24 .4l-1.4-5.1c-.1.1-.2.1-.3.2l1.1 5.4.1.3h.3c8.1.2 16.2.4 24.3.5 8.1.1 16.2.1 24.3-.1 8.1-.1 16.2-.4 24.3-.4s16.2 0 24.3.2h.6l-.1-.6-.3-3.4c.3.1.5.2.8.2.6.2 1.3.4 2 .5.7.1 1.6 0 2.3-.5.7-.4 1.2-1.1 1.4-1.7.3-.6.5-1.2.7-1.8.2-.5.6-1 1-1.4.4-.4 1-.7 1.6-.5-.3-.3-1.1-.2-1.7.1z" fill="#488cdc" stroke-width="none" opacity="1" stroke="none"></path><path id="SvgjsPath10758" d="M176.4 198.5c-2.7-3.3-4.9-6.3-6.5-10.3-.1-.1-.3-.1-.2.1.9 3.9 3 8.2 6.3 10.7.2.2.6-.2.4-.5zm-1.5.3c-.9.4-.9.8-1.4 1.5-1.2 1.7-2.9.7-4.6 1-2.5.4-5 3.1-6.4 5-.2.3.2.6.5.5 1.2-.7 2.2-1.6 3.2-2.5 1-.9 2.1-1.8 3.5-1.9.4 0 1.6.3 2.1.3 2.5-.2 1.6-2.2 3.3-3.4.3-.1.1-.7-.2-.5zm-20.1 9.9c-1.1-3.5-2.3-6.8-3.1-10.3-.1-.3-.7-.3-.6.1.4 3.6 1.4 7.4 3.3 10.4 0 .3.5.1.4-.2zm-.2.8c-.9.3-.4.6-1.2 1-3.6 1.8-3.1 0-5.7 0-.9 0-1.6.4-2.4.9-.4.3-1.6 1.3-1.8 1.4-1.7.6-3.4-.4-4.5-1.5-.3-.3-.7.1-.5.4 1.7 3.7 4.2 3.3 7.1 1.3 1.9-1.3 2.8-.7 4.9-.1.6.2 1.2.4 1.9.3 2.1-.4 1.3-1.9 2.6-3 .2-.3-.1-.8-.4-.7zm-21.7-6.6c-.3 1.8.5 3.9.2 5.5-1.4 7-4.9 3.6-7.2 2.4-.7-.4-1.4-.7-2.2-.9-4.9-1.4-8.1 2.7-12.8 1.8-.4-.1-.6.5-.2.6 3.8 1.4 4.2-.4 7.9-1.4 5-1.4 7.2 3.2 11.4 2.9 5.4-.3 3.1-7.8 3.1-10.9.1-.1-.2-.1-.2 0zm-29.3 1.5c.5 2.9 1.4 5.7 2.9 8.2.1.2.5.1.4-.2-1-2.7-2-5.4-2.9-8.2-.2-.2-.5-.1-.4.2zm-3.4 7.7c-2.6.7-4.3-1.5-6.7-1-.3.1-.7.3-1 .4-1.4.3-2 .2-3.5-.2-2.5-.7-4.6-.5-6.5 1.4-.2.2.1.6.3.4 1.4-1 3.1-1.7 4.9-1.2.9.2 1.6 1.1 2.4 1.3.6.2 1 .2 1.7.1 1.1-.3 1.3-.7 2.6-.9 1.3-.1 2 .4 3.2.6 1.2.2 1.8.3 2.8-.5.4-.1.2-.5-.2-.4zm-23-6.7c0 1.2.8 6.2-.2 6.6-.5.2-4.7-1.4-5.6-1.5-5.4-.5-10.5 3.4-15.4 1.2-.6-.3-1.1.5-.5.9 2.5 1.8 4 2 6.9 1 5.5-2 9.9-2.7 15.4 0 .3.2.9 0 .9-.5-.3-2.6-.4-5.3-.8-7.9-.2-.2-.7-.1-.7.2zm-29.3-.6c-.2 2-.5 3.9-.7 5.9-1.6-2-4.3-3-6.9-2.1-.6.2-1.3.9-1.9 1.1-2.4.5-1.5-.4-2.6-1-.7-.4-4.1-1.9-4.1-2.3 0-.3-.3-.5-.5-.2-.4.8-.6 1.1.1 1.9.4.4.9.4 1.3.6 1.2.6 2 1.5 3 2.2 1 .7 1.1 1.1 2.5.6.6-.2 1.6-1.2 1.7-1.3 2.8-1.6 5.7-.5 7.3 2 .2.4.8.2.8-.2.1-2.4.3-4.8.4-7.1.1-.4-.3-.4-.4-.1z" fill="#a0ccff" stroke-width="none" opacity="1" stroke="none"></path></g><g id="svga-group-head" transform="matrix(1,0,0,1,0,0)"><g id="svga-group-ears-left-move" transform="matrix(1,0,0,1,0,0)"><g id="svga-group-ears-left"><path id="SvgjsPath9993" d="M65.78 91.77s-3.16-4.73-12.23-7.89c0 0-3.02-.66-10.12 10.39 0 0-1.31 5.78 5 15.25 0 0 6.18 3.29 16.3-1.18-.01-.01 4.6-7.5 1.05-16.57z" fill="#f3d4cf" stroke-width="none" opacity="1" stroke="none"></path><path id="SvgjsPath9994" d="M64.46 100.36s-5.52-8.22-10.65-11.09c0 0-3.42 2.6-6.31 7.53 0 0 2.89 6.71 4.34 8.49 0 0 3.55 1.37 10.91-.55l1.71-4.38z" fill="#e4b3ab" stroke-width="none" opacity="1" stroke="none"></path><path id="SvgjsPath9995" d="M43.27 94.23c-.12.71-.12 1.39-.08 2.08.03.69.11 1.37.22 2.05.23 1.36.61 2.68 1.05 3.98.43 1.31 1.01 2.56 1.6 3.8.31.61.64 1.21.97 1.82l1.08 1.76.05.08.08.04c1.35.66 2.75.96 4.17 1.14 1.42.17 2.86.16 4.28.04 1.42-.13 2.83-.43 4.19-.82.69-.18 1.35-.44 2.03-.66l1.97-.8.13-.05.07-.12c.75-1.31 1.22-2.68 1.6-4.09.38-1.4.57-2.85.61-4.3.04-1.44-.04-2.89-.33-4.3-.21-1.42-.66-2.79-1.16-4.13-.73-1.01-1.63-1.86-2.55-2.68-.93-.81-1.92-1.56-2.95-2.24-1.03-.68-2.11-1.29-3.22-1.85-1.11-.56-2.26-1.01-3.42-1.46l-.03-.01h-.02c-.52-.05-.78.08-1.13.18-.32.12-.61.28-.88.45-.55.35-1.05.74-1.53 1.16-.96.83-1.78 1.78-2.56 2.75-1.56 1.95-2.89 4.04-4.24 6.12l-.02.03.02.03zm.31.09a57.62 57.62 0 0 1 2.11-3c.74-.99 1.51-1.94 2.32-2.86.82-.91 1.66-1.8 2.57-2.59.46-.39.94-.76 1.44-1.06.25-.15.51-.28.77-.39.23-.1.56-.17.67-.17l1.68.6 1.69.69c1.12.48 2.22 1.01 3.28 1.61 1.05.61 2.09 1.27 3.04 2.04.95.76 1.86 1.62 2.58 2.59.46 1.34.87 2.71 1.04 4.12.19 1.41.19 2.83.05 4.24-.13 1.41-.44 2.78-.85 4.13a19.68 19.68 0 0 1-1.57 3.71l-1.79.71c-.66.21-1.3.45-1.97.62-1.33.37-2.68.63-4.04.8-1.36.14-2.74.18-4.1.04-1.32-.14-2.67-.42-3.85-.93l-1.05-1.6-1.03-1.75c-.64-1.19-1.26-2.4-1.74-3.66-.5-1.26-.89-2.56-1.14-3.89-.23-1.32-.34-2.71-.11-4z" fill="#e4b3ab" stroke-width="none" opacity="1" stroke="none"></path><path id="SvgjsPath9996" d="M48.43 94.49c.45-.59.94-1.13 1.41-1.69.98-1.09 1.99-2.13 3.04-3.17l.12-.12.16.12c.88.65 1.69 1.39 2.45 2.18.75.79 1.41 1.67 2.04 2.55 1.23 1.79 2.32 3.68 3.17 5.67l-.08.04c-1.21-1.79-2.43-3.56-3.71-5.27-.64-.85-1.31-1.68-1.98-2.51-.64-.77-1.31-1.53-2.04-2.21-1.07.87-2.05 1.86-2.93 2.92-.88 1.08-1.65 2.25-2.21 3.49.52 1.16 1.05 2.32 1.62 3.45.52 1.01 1.05 2.02 1.66 2.93.66-.58 1.31-1.2 1.92-1.84.7-.76 1.35-1.57 1.77-2.47-.13-.46-.35-.94-.6-1.38-.27-.48-.61-.91-.98-1.33l.06-.07c.45.34.85.75 1.21 1.2.18.22.34.47.48.72.14.26.27.5.38.8l.02.07-.03.09c-.35 1.11-1.03 2.02-1.72 2.88-.7.87-1.47 1.64-2.31 2.38l-.38.34-.3-.41c-.83-1.13-1.41-2.34-1.97-3.55-.56-1.22-1.06-2.45-1.52-3.71l-.05-.15.06-.12c.37-.63.8-1.24 1.24-1.83z" fill="#c5796d" stroke-width="none" opacity="1" stroke="none"></path></g></g><g id="svga-group-ears-right-move" transform="matrix(1,0,0,1,0,0)"><g id="svga-group-ears-right"><path id="SvgjsPath9997" d="M134.22 91.77s3.16-4.73 12.23-7.89c0 0 3.02-.66 10.12 10.39 0 0 1.31 5.78-5 15.25 0 0-6.18 3.29-16.3-1.18.01-.01-4.6-7.5-1.05-16.57z" fill="#f3d4cf" stroke-width="none" opacity="1" stroke="none"></path><path id="SvgjsPath9998" d="M135.54 100.36s5.52-8.22 10.65-11.09c0 0 3.42 2.6 6.31 7.53 0 0-2.89 6.71-4.34 8.49 0 0-3.55 1.37-10.91-.55l-1.71-4.38z" fill="#e4b3ab" stroke-width="none" opacity="1" stroke="none"></path><path id="SvgjsPath9999" d="m156.72 94.21-.02-.03c-1.35-2.08-2.67-4.18-4.24-6.12-.78-.97-1.6-1.92-2.56-2.75-.47-.42-.98-.81-1.53-1.16-.28-.17-.57-.33-.88-.45-.35-.1-.61-.23-1.13-.18h-.02l-.03.01c-1.16.44-2.32.89-3.42 1.46-1.11.56-2.19 1.17-3.22 1.85-1.03.68-2.02 1.43-2.95 2.24-.92.82-1.82 1.67-2.55 2.68-.5 1.34-.95 2.71-1.16 4.13-.29 1.41-.37 2.86-.33 4.3.04 1.44.22 2.89.61 4.3.38 1.41.85 2.78 1.6 4.09l.07.12.13.05 1.97.8c.68.22 1.34.48 2.03.66 1.37.39 2.77.69 4.19.82 1.42.12 2.86.13 4.28-.04 1.43-.18 2.82-.48 4.17-1.14l.08-.04.05-.08 1.08-1.76c.33-.61.66-1.21.97-1.82.59-1.24 1.17-2.49 1.6-3.8.44-1.3.83-2.62 1.05-3.98.1-.68.19-1.36.22-2.05.04-.69.04-1.37-.08-2.08l.02-.03zm-.42 4.1c-.24 1.33-.64 2.64-1.14 3.89-.48 1.27-1.1 2.48-1.74 3.66l-1.03 1.75-1.05 1.6c-1.18.51-2.53.79-3.85.93-1.36.14-2.74.11-4.1-.04a26.73 26.73 0 0 1-4.04-.8c-.67-.17-1.31-.42-1.97-.62l-1.79-.71c-.63-1.15-1.18-2.41-1.57-3.71-.41-1.34-.72-2.72-.85-4.13-.14-1.4-.14-2.83.05-4.24.17-1.41.58-2.78 1.04-4.12.72-.97 1.63-1.83 2.58-2.59.95-.77 1.99-1.43 3.04-2.04 1.06-.61 2.16-1.13 3.28-1.61l1.69-.69 1.68-.6c.11 0 .44.07.67.17.26.11.51.24.77.39.5.3.98.67 1.44 1.06.92.79 1.75 1.68 2.57 2.59.81.92 1.59 1.88 2.32 2.86.75.97 1.43 1.98 2.11 3 .24 1.3.13 2.69-.11 4z" fill="#e4b3ab" stroke-width="none" opacity="1" stroke="none"></path><path id="SvgjsPath10000" d="M151.57 94.49c-.45-.59-.94-1.13-1.41-1.69-.98-1.09-1.99-2.13-3.04-3.17l-.12-.12-.16.12c-.88.65-1.69 1.39-2.45 2.18-.75.79-1.41 1.67-2.04 2.55-1.23 1.79-2.32 3.68-3.17 5.67l.08.04c1.21-1.79 2.43-3.56 3.71-5.27.64-.85 1.31-1.68 1.98-2.51.64-.77 1.31-1.53 2.04-2.21 1.07.87 2.05 1.86 2.93 2.92.88 1.08 1.65 2.25 2.21 3.49-.52 1.16-1.05 2.32-1.62 3.45-.52 1.01-1.05 2.02-1.66 2.93-.66-.58-1.31-1.2-1.92-1.84-.7-.76-1.35-1.57-1.77-2.47.13-.46.35-.94.6-1.38.27-.48.61-.91.98-1.33l-.06-.07c-.45.34-.85.75-1.21 1.2-.18.22-.34.47-.48.72-.14.26-.27.5-.38.8l-.02.07.03.09c.35 1.11 1.03 2.02 1.72 2.88.7.87 1.47 1.64 2.31 2.38l.38.34.3-.41c.83-1.13 1.41-2.34 1.97-3.55.56-1.22 1.06-2.45 1.52-3.71l.05-.15-.06-.12c-.37-.63-.8-1.24-1.24-1.83z" fill="#c5796d" stroke-width="none" opacity="1" stroke="none"></path></g></g><g id="svga-group-faceshape-wrap"><g id="svga-group-faceshape-single"><path id="SvgjsPath10027" d="M135.9 49.8c-6.7-7.4-11.3-13.2-28.8-17.3-1.8-.4-12.3-.4-14.1 0-17.5 4.1-22.1 9.9-28.8 17.3-7.1 7.8-9.5 29-9.5 29 0 21.4 2.7 35.2 5 41.3 2.3 6.2 21.1 25.2 24.9 27s15.5 2.3 15.5 2.3 11.6-.6 15.5-2.3c3.8-1.8 22.6-20.8 24.9-27s5.1-19.9 5-41.3c-.1 0-2.5-21.2-9.6-29z" fill="#f3d4cf" stroke-width="none" opacity="1" stroke="none"></path><path id="SvgjsPath10028" d="M107.1 32.5c-1.8-.4-12.3-.4-14.1 0-17.5 4.1-22.1 9.9-28.8 17.3-7.1 7.8-9.5 29-9.5 29 0 21.4 2.7 35.2 5 41.3 2.3 6.2 21.1 25.2 24.9 27s15.5 2.3 15.5 2.3 11.6-.6 15.5-2.3c3.8-1.8 22.6-20.8 24.9-27s5.1-19.9 5-41.3c0 0-2.4-21.2-9.5-29-6.8-7.4-11.4-13.2-28.9-17.3zm35 31.2c.7 2.5 1.2 5 1.6 7.5.4 2.5.8 5 1 7.5-.1 3.9-.3 7.8-.7 11.7l-.3 2.9-.3 2.9-.3 2.9-.4 2.9c-.6 3.9-1.2 7.7-2.1 11.4-.5 1.9-1 3.7-1.6 5.5-.81 1.95-2.2 3.8-2.7 4.6-1.2 1.5-2.4 3-3.7 4.5-1.3 1.5-2.6 2.9-3.9 4.4-2.6 2.9-5.4 5.6-8.2 8.3-1.4 1.3-2.8 2.7-4.3 3.8-.4.3-1.22.92-2.1 1.3-.8.3-1.7.5-2.6.7-1.8.4-3.8.6-5.7.9-1.9.2-3.8.4-5.7.5-1.9-.1-3.8-.2-5.7-.4-1.9-.2-3.9-.4-5.7-.7-.9-.2-2.76-.53-4.8-1.9-1.5-1.1-3-2.4-4.4-3.7-2.9-2.6-5.7-5.3-8.4-8.2-2.7-2.8-5.4-5.7-7.8-8.8-.6-.8-1.2-1.5-1.7-2.3-.3-.4-.5-.8-.7-1.2l-.3-.6c-.1-.2-.2-.4-.3-.7-.7-1.8-1.2-3.7-1.7-5.6s-.9-3.8-1.2-5.7c-.2-1-.3-1.9-.5-2.9l-.4-2.9c-1-7.8-1.2-15.6-1.1-23.4.7-4.6 1.7-9.3 3-13.7.7-2.2 1.4-4.5 2.3-6.6.4-1.1.9-2.1 1.4-3.1s1.1-2 1.7-2.9c1.87-2.75 3.8-4.3 4.6-5.2 1.6-1.7 3.3-3.3 5-4.7 1.8-1.4 3.7-2.6 5.7-3.7s4.1-2 6.3-2.8l1.6-.6c.5-.2 5.91-1.79 8.3-2.1 1.2-.1 2.3-.1 3.5-.2 2.3-.1 4.65-.14 6.95-.14.1 0 3.35.64 3.35.64l1.8.4 1.7.4c2.3.6 4.5 1.3 6.7 2.3.3.1.5.2.8.3l.8.4c.5.3 1.1.5 1.6.8l1.5.9 1.5.9c2 1.3 3.8 2.8 5.4 4.5 1.7 1.7 3.3 3.4 4.9 5.2 1.7 1.9 2.9 4.2 3.9 6.6 1 2.3 1.8 4.8 2.4 7.2z" fill="#c5796d" stroke-width="none" opacity="1" stroke="none"></path></g></g><g id="svga-group-mouth-single-move" transform="matrix(1,0,0,1,0,0)"><g id="svga-group-mouth-single"><path id="SvgjsPath10247" d="M86.91 124.8c.07.65 1.73 1.37 3.46 1.87s6.92.58 9.44.65c2.52.07 13.47-2.02 14.48-2.59 1.01-.58-6.77-3.6-9.51-3.1s-5.12 2.16-6.56 1.8-3.53-1.87-4.83-1.3c-1.3.58-3.82 2.31-4.47 2.38-.64.07-2.01.29-2.01.29z" fill="#df6277" stroke-width="none" opacity="1"></path><path id="SvgjsPath10248" d="M86.04 124.67c1.27 1.34 2.83 1.27 4.34.24.69-.47 1.37-1.28 2.13-1.64 1.5-.72 2.18-.19 3.42.37.97.44 1.78.68 2.89.55 1.16-.14 1.96-.64 3.01-1.08 2.44-.99 4.14-.26 6.51.73 2.75 1.17 5.14 2.17 8.04.5.39-.23.17-.78-.34-.68-4.06.76-6.65-2.56-9.91-3.36-2.72-.67-4.16.44-6.33 1.51-1.05.53-1.25 1.23-2.98.41-.47-.23-.82-.71-1.27-.97-.73-.43-1.44-.61-2.31-.5-2.36.3-4.5 4.11-6.75 3.16-.42-.19-.75.45-.45.76z" fill="#d0475e" stroke-width="none" opacity="1"></path></g></g><g id="svga-group-eyes-left-move" transform="matrix(1,0,0,1,0,0)"><g id="svga-group-eyes-left"><g id="svga-group-eyesback-left"><path id="SvgjsPath10710" d="M80.2 77.2c7.5 0 13.5 5.8 13.5 13s-6 13-13.5 13-13.5-5.8-13.5-13 6-13 13.5-13z" fill="#ffffff" stroke-width="none" opacity="1"></path></g><g id="svga-group-eyesiriswrapper-left" transform="matrix(1,0,0,1,0,0)"><g id="svga-group-eyesiriscontrol-left" transform="matrix(1,0,0,1,0,0)"><g id="svga-group-eyesiris-left"><path id="SvgjsPath10065" d="M80.2 84.9c2.9 0 5.3 2.4 5.3 5.3s-2.4 5.3-5.3 5.3-5.3-2.4-5.3-5.3 2.4-5.3 5.3-5.3z" fill="#7b5c33" stroke-width="none" opacity="1" stroke="none"></path><path id="SvgjsPath10066" d="M80.2 95.8c-3.1 0-5.6-2.5-5.6-5.6s2.5-5.6 5.6-5.6 5.6 2.5 5.6 5.6c0 3.1-2.5 5.6-5.6 5.6zm0-10.6c-2.8 0-5.1 2.3-5.1 5.1s2.3 5.1 5.1 5.1 5.1-2.3 5.1-5.1c-.1-2.9-2.3-5.1-5.1-5.1z" fill="#5c3d14" stroke-width="none" opacity="1" stroke="none"></path><path id="SvgjsPath10067" d="M85.3 90.2c-.7 0-1.3-.1-2 0 0-.3 0-.6-.1-.8.8-.1 1.5-.3 2.2-.6.2-.1.1-.3-.1-.3-.7.2-1.5.4-2.2.7 0-.1-.1-.2-.1-.3.3-.1.6-.3.9-.4.4-.2.8-.3 1.1-.4.1-.1.1-.3-.1-.2-.7.1-1.5.4-2.1.9 0-.1-.1-.1-.1-.2.2-.2.5-.3.7-.5.3-.3.7-.5 1-.8.1-.1 0-.3-.2-.2-.3.3-.7.6-1 .8-.2.2-.4.3-.7.5l-.3-.3c.5-.6.9-1.3 1.3-1.9.1-.1-.1-.2-.2-.1-.5.6-1 1.2-1.4 1.9-.1-.1-.2-.1-.3-.2.2-.8.3-1.6.3-2.3 0-.2-.3-.2-.3 0-.1.6-.2 1.1-.3 1.7 0 .2-.1.3-.1.5-.2-.1-.4-.1-.6-.1 0-.8-.1-1.5-.3-2.2 0-.1-.1 0-.1 0-.1.7-.1 1.4-.1 2.2h-.4c0-.2-.1-.4-.1-.6-.1-.5-.1-1-.2-1.4 0-.1-.2-.1-.2 0-.1.6 0 1.4.2 2.1-.1 0-.2 0-.2.1-.2-.7-.4-1.5-.7-2.1 0-.1-.2-.1-.2.1.1.7.3 1.5.6 2.2 0 0-.1 0-.1.1-.3-.7-.9-1.3-1.3-1.9-.1-.1-.2 0-.1.1.4.7.7 1.4 1.2 2-.1.1-.2.1-.2.2-.1-.1-.2-.3-.3-.4-.3-.4-.7-.9-1.1-1.2-.1-.1-.2 0-.2.1.2.4.6.8.9 1.2.1.2.3.4.4.5l-.4.4c-.6-.5-1.2-.9-1.8-1.2-.1 0-.1.1-.1.1.5.5 1.1 1 1.7 1.4-.1.2-.2.3-.3.5-.1 0-.2-.1-.3-.1-.6-.2-1.2-.5-1.8-.7-.2-.1-.2.2-.1.2.5.3 1.1.5 1.6.7.2.1.3.2.5.2 0 .1 0 .2-.1.3-.2 0-.3-.1-.5-.1-.5-.1-1.1-.2-1.7-.1-.1 0-.1.2 0 .2.6.2 1.4.3 2.1.4v.5c-.3.1-.6.2-.9.4-.4.2-.8.2-1.2.5-.1.1-.1.3.1.3.5 0 .9-.2 1.4-.4.2-.1.5-.2.7-.3 0 .2.1.3.1.5-.1.1-.2.1-.3.2-.5.3-1 .6-1.5 1-.1.1 0 .3.2.2.6-.3 1.1-.7 1.6-1 .1 0 .1-.1.2-.1.1.1.2.3.3.4-.6.5-1 1.1-1.5 1.6-.1.1 0 .2.1.1.5-.4 1.1-.9 1.6-1.4l.3.3c-.2.2-.3.4-.4.6-.3.4-.7.9-.9 1.3-.1.1.1.2.2.1.3-.4.7-.8 1-1.2.2-.2.3-.4.5-.6.1 0 .1.1.2.1-.1.2-.2.3-.2.4-.2.5-.5.9-.7 1.4 0-.8.2-.7.3-.8.3-.4.5-1 .8-1.5.1-.1.1-.3.2-.4h.1c-.3.7-.5 1.4-.6 2.2 0 .1.2.1.2 0 .2-.7.5-1.4.7-2.1.1 0 .2 0 .3.1-.2.7-.2 1.6-.3 2.3 0 .2.3.2.3 0 0-.8.2-1.5.2-2.3h.2c-.1.7-.1 1.5 0 2.2 0 .2.3.2.3 0-.1-.7 0-1.5-.1-2.2.2 0 .4-.1.7-.2.1.3.3.7.4 1 .2.3.3.8.6 1 .1 0 .1 0 .1-.1 0-.3-.2-.7-.4-1-.2-.3-.3-.7-.5-1 .1 0 .1-.1.2-.1.1.3.3.6.5.9s.3.8.6 1c.1.1.2 0 .2-.1-.1-.4-.4-.8-.6-1.1-.2-.3-.3-.6-.5-.8.1-.1.2-.1.3-.2.4.6.8 1.2 1.3 1.7.2.2.4-.1.2-.2-.5-.5-.9-1.1-1.4-1.6.2-.2.4-.4.5-.6.6.4 1.2.9 1.8 1.3.1.1.3-.1.2-.2-.6-.5-1.2-.9-1.8-1.2 0-.1.1-.1.1-.2.6.4 1.3.7 1.9.9.2.1.2-.2.1-.2-.6-.3-1.3-.7-2-.9.1-.2.2-.5.2-.8.7.1 1.4.1 2 .1.5 0 .5-.5.2-.5z" fill="#5c3d14" stroke-width="none" opacity="1" stroke="none"></path><path id="SvgjsPath10068" d="M80.2 87.3c1.6 0 2.9 1.3 2.9 2.9s-1.3 2.9-2.9 2.9-2.9-1.3-2.9-2.9 1.3-2.9 2.9-2.9z" fill="#000000" stroke-width="none" opacity="1"></path><path id="SvgjsPath10069" d="M78.6 87.7c.6 0 1.1.5 1.1 1.1s-.5 1.2-1.1 1.2-1.1-.5-1.1-1.1.5-1.2 1.1-1.2zm3.5 4.1c.3 0 .6.3.6.6s-.2.6-.6.6-.6-.3-.6-.6.3-.6.6-.6z" fill="#ffffff" stroke-width="none" opacity="1"></path></g></g></g><g id="svga-group-eyesfront-left"><path id="SvgjsPath10718" d="M80.2 76.7c-7.8 0-14.1 6.1-14.1 13.6s6.3 13.6 14.1 13.6 14.1-6.1 14.1-13.6S88 76.7 80.2 76.7zm-9 16.3c-5.8-3.4-4.7-12.6 6.7-8.9 8.5 2.8 14.4 10.4 14.4 10.4C82 95.8 76.9 96.4 71.2 93z" fill="#f3d4cf" stroke-width="none" opacity="1"></path><path id="SvgjsPath10719" d="M93.2 95.3s-3.9-3.3-6.5-4.7c-2.6-1.4-6.6-5.5-11.2-5.6-4.6-.1-9.4 3.8-9.4 3.8s.9-5.2 4.1-7.8c3.2-2.6 6.2-1.3 10.3 1.1s10.9 8.5 12.7 13.2z" fill="#ebc3bd" stroke-width="none" opacity="1"></path><path id="SvgjsPath10720" d="M93.2 95.3c-1.8-1.8-3.8-3.5-5.9-5.1-1-.8-2.1-1.5-3.2-2.2l-1.6-1c-.6-.3-1.1-.7-1.7-1-1.2-.7-2.5-1.2-3.9-1.4-1.4-.2-2.8-.1-4.1.2-.5.1-1 .3-1.5.5-.5-.2-1.8-.7-3.2-1.3.7-1.2 1.6-2.4 2.8-3.2.6-.4 1.3-.8 2.1-.9.8-.1 1.5-.1 2.3.1 1.5.4 2.9 1.1 4.3 1.9 2.8 1.6 5.3 3.6 7.7 5.8 1.2 1.1 2.3 2.3 3.3 3.5 1 1.3 2 2.6 2.6 4.1-.6-1.5-1.5-2.9-2.4-4.2-1-1.3-2.1-2.5-3.2-3.6-1.2-1.1-2.4-2.2-3.6-3.2-1.3-1-2.6-2-4-2.8-1.4-.8-2.8-1.6-4.5-2-.8-.2-1.7-.2-2.5-.1s-1.6.5-2.3 1c-1.3.9-2.3 2.1-3 3.4-.9-.4-1.8-.9-2.6-1.4-.1-.1-.3-.1-.4.1-.1.1-.1.3.1.4.7.5 1.7 1 2.6 1.4-.3.5-.5 1-.7 1.6-1.6-.4-3.5-1-4.8-1.7-.1-.1-.3 0-.4.1s0 .3.1.4c1.3.7 3.2 1.3 4.9 1.7-.1.3-.2.7-.3 1-1.7.1-4.3 0-6.5-.9-.2-.1-.3 0-.4.2s0 .3.2.4c2 .8 4.2 1 5.9 1h.6c-.1.2-.1.5-.2.7 0 .1 0 .2.1.2.1.1.3.1.4.1.5-.3.9-.7 1.4-1 .1.7.2 1.4.6 2.1.5 1.2 1.4 2.1 2.4 2.8 2.1 1.4 4.5 2.3 6.9 2.6 1.2.2 2.5.2 3.7.2 1.2 0 2.5-.1 3.7-.2 2.4-.2 4.7-.6 7.1-.9.3.2.7.4 1.1.6zM67.8 84.6c1 .5 2 .9 2.7 1.1-.5.2-1 .5-1.4.8-.4-.1-1.1-.2-1.9-.4.1-.5.4-1 .6-1.5zm-.9 2c.5.1 1 .2 1.4.3-.1.1-.2.2-.3.2-.1.1-.3.2-.4.2-.1 0-.4.1-1 .1.2-.2.2-.5.3-.8zm-.3 1.4c-.1 0-.1.1-.2.1V88h.2zm18.3 7.1c-2.4.2-4.9.2-7.3-.1-2.4-.4-4.7-1.2-6.7-2.5-1-.7-1.8-1.6-2.4-2.6-.3-.7-.5-1.4-.6-2.1 1.7-.8 3.4-1.4 5.1-1.7 1.2-.2 2.4-.2 3.6.1 1.2.2 2.3.7 3.3 1.2 1.1.6 2.2 1.3 3.3 1.9 1.1.6 2.2 1.3 3.3 1.9l5.4 3.3c-2.3.3-4.6.5-7 .6z" fill="#000000" stroke-width="none" opacity="1"></path></g></g></g><g id="svga-group-eyes-right-move" transform="matrix(1,0,0,1,0,0)"><g id="svga-group-eyes-right"><g id="svga-group-eyesback-right"><path id="SvgjsPath10711" d="M119.8 77.2c7.5 0 13.5 5.8 13.5 13s-6 13-13.5 13-13.5-5.8-13.5-13 6-13 13.5-13z" fill="#ffffff" stroke-width="none" opacity="1"></path></g><g id="svga-group-eyesiriswrapper-right" transform="matrix(1,0,0,1,0,0)"><g id="svga-group-eyesiriscontrol-right" transform="matrix(1,0,0,1,0,0)"><g id="svga-group-eyesiris-right"><path id="SvgjsPath10070" d="M119.8 85.5c2.6 0 4.7 2.1 4.7 4.7s-2.1 4.7-4.7 4.7-4.7-2.1-4.7-4.7 2.1-4.7 4.7-4.7z" fill="#7b5c33" stroke-width="none" opacity="1" stroke="none"></path><path id="SvgjsPath10071" d="M119.8 95.1c-2.7 0-4.9-2.2-4.9-4.9s2.2-4.9 4.9-4.9 4.9 2.2 4.9 4.9-2.2 4.9-4.9 4.9zm0-9.3c-2.4 0-4.4 2-4.4 4.4s2 4.4 4.4 4.4 4.4-2 4.4-4.4c0-2.4-2-4.4-4.4-4.4z" fill="#5c3d14" stroke-width="none" opacity="1" stroke="none"></path><path id="SvgjsPath10072" d="M124.2 90.2c-.6 0-1.2-.1-1.8 0 0-.2 0-.5-.1-.7.7-.1 1.3-.3 2-.5.2-.1.1-.3-.1-.3-.7.1-1.3.3-2 .6 0-.1-.1-.2-.1-.3.3-.1.5-.2.8-.3.3-.1.7-.2 1-.4.1-.1.1-.2-.1-.2-.6.1-1.3.4-1.8.8 0-.1-.1-.1-.1-.2.2-.1.4-.3.6-.4.3-.2.6-.4.9-.7.1-.1 0-.3-.2-.2-.3.2-.6.5-.9.7-.2.1-.4.3-.6.4l-.3-.3c.4-.5.8-1.1 1.1-1.7 0-.1-.1-.2-.1-.1-.4.5-.9 1.1-1.2 1.6-.1-.1-.2-.1-.3-.2.2-.7.2-1.4.2-2 0-.1-.2-.2-.3 0-.1.5-.1 1-.2 1.5 0 .1-.1.3-.1.4-.2-.1-.3-.1-.5-.1 0-.7-.1-1.3-.2-1.9 0-.1-.1 0-.1 0-.1.6-.1 1.3-.1 1.9h-.4c0-.2-.1-.3-.1-.5-.1-.4-.1-.8-.2-1.3 0-.1-.2-.1-.2 0-.1.5 0 1.2.2 1.8-.1 0-.1 0-.2.1-.2-.6-.4-1.3-.6-1.9 0-.1-.2-.1-.2 0 .1.6.3 1.3.5 1.9h-.1c-.3-.6-.8-1.2-1.2-1.7-.1-.1-.2 0-.1.1.3.6.7 1.2 1.1 1.7-.1 0-.2.1-.2.1-.1-.1-.2-.2-.3-.4-.3-.4-.6-.8-1-1.1-.1-.1-.2 0-.1.1.2.4.5.7.8 1.1.1.2.2.3.4.5l-.3.3c-.5-.4-1.1-.8-1.6-1.1-.1 0-.1 0-.1.1l1.5 1.2c-.1.1-.2.3-.2.4-.1 0-.2-.1-.3-.1-.5-.2-1-.4-1.6-.6-.1 0-.2.2-.1.2.4.2.9.4 1.4.6.1.1.3.1.4.2 0 .1 0 .2-.1.2-.2 0-.3 0-.4-.1-.5-.1-1-.2-1.4-.1-.1 0-.1.1 0 .2.5.2 1.2.3 1.9.3v.4c-.3.1-.5.2-.8.3-.3.1-.7.2-1 .4-.1.1-.1.2.1.2.4 0 .8-.2 1.2-.4l.6-.3c0 .1.1.3.1.4-.1.1-.2.1-.3.2-.4.3-.9.6-1.3.9-.1.1 0 .2.1.2.5-.2.9-.6 1.4-.9.1 0 .1-.1.2-.1.1.1.1.2.2.3-.5.4-.9.9-1.3 1.4-.1.1 0 .2.1.1.5-.4 1-.8 1.4-1.3l.3.3c-.1.2-.3.3-.4.5-.3.4-.6.8-.8 1.2-.1.1.1.2.2.1.3-.3.6-.7.9-1.1.1-.2.3-.3.4-.5.1 0 .1.1.1.1-.1.1-.1.3-.2.4-.2.4-.4.8-.6 1.3 0 .1.1.2.2.1.3-.4.5-.8.7-1.3.1-.1.1-.2.2-.3h.1c-.3.6-.5 1.3-.5 1.9 0 .1.1.1.2 0 .2-.6.4-1.2.7-1.8h.3c-.2.6-.2 1.4-.2 2 0 .2.3.2.3 0 0-.7.2-1.3.2-2h.2c-.1.6-.1 1.3 0 1.9 0 .2.3.2.3 0-.1-.6 0-1.3-.1-1.9.2 0 .4-.1.6-.1.1.3.2.6.4.9.1.3.2.7.5.9.1 0 .1 0 .1-.1 0-.3-.2-.6-.3-.9-.1-.3-.3-.6-.4-.9.1 0 .1-.1.2-.1.1.3.3.5.4.8.2.3.3.7.6.9.1.1.2 0 .2-.1-.1-.3-.3-.7-.5-.9-.2-.2-.3-.5-.5-.7.1-.1.2-.1.3-.2.3.6.7 1.1 1.1 1.5.1.1.3-.1.2-.2-.4-.5-.8-.9-1.2-1.4.2-.2.3-.3.4-.5.5.4 1 .8 1.6 1.1.1.1.2-.1.2-.2-.5-.4-1-.8-1.6-1.1 0-.1.1-.1.1-.2.5.3 1.2.6 1.7.8.1.1.2-.2.1-.2-.5-.3-1.1-.6-1.7-.8.1-.2.1-.4.2-.7.6.1 1.2.1 1.8.1 0 .4 0 0-.3 0z" fill="#5c3d14" stroke-width="none" opacity="1" stroke="none"></path><path id="SvgjsPath10073" d="M119.8 87.7c1.4 0 2.5 1.1 2.5 2.5s-1.1 2.5-2.5 2.5-2.5-1.1-2.5-2.5 1.1-2.5 2.5-2.5z" fill="#000000" stroke-width="none" opacity="1"></path><path id="SvgjsPath10074" d="M118.4 88c.5 0 1 .4 1 1s-.4 1-1 1-1-.4-1-1 .4-1 1-1zm3.1 3.6c.3 0 .5.2.5.5s-.2.5-.5.5-.5-.2-.5-.5.2-.5.5-.5z" fill="#ffffff" stroke-width="none" opacity="1"></path></g></g></g><g id="svga-group-eyesfront-right"><path id="SvgjsPath10721" d="M119.8 76.7c-7.8 0-14.1 6.1-14.1 13.6s6.3 13.6 14.1 13.6 14.1-6.1 14.1-13.6-6.3-13.6-14.1-13.6zm9.9 14.5c-5.8 3.4-11.2 5.4-21.5 4.2 0 0 6.2-6.8 15-8.6s12.2 1 6.5 4.4z" fill="#f3d4cf" stroke-width="none" opacity="1"></path><path id="SvgjsPath10724" d="M107.3 96.1s3.9-3.3 6.5-4.7c2.6-1.4 7.5-4.4 12.1-4.5 4.6-.1 7.3 2.1 7.3 2.1s-2.7-4.8-5.9-7.4-5-.8-9.1 1.6c-4.1 2.5-9.1 8.2-10.9 12.9z" fill="#ebc3bd" stroke-width="none" opacity="1"></path><path id="SvgjsPath10725" d="M139.7 88.3c-2.7.2-5.5-.1-6.9-.3l-.6-.9h.4c1.9 0 4.2-.2 5.9-.8.1-.1.2-.2.2-.4s-.2-.2-.4-.2c-1.8.7-4.5.8-6.4.7-.2-.4-.5-.7-.8-1.1 1.3-.3 2.5-.7 3-1 .1-.1.2-.2.1-.4s-.2-.2-.4-.1c-.5.3-1.7.6-3.1 1-.9-1.2-1.9-2.3-3.1-3.3-.6-.5-1.2-1-2-1.3-.8-.3-1.6-.3-2.4-.1-.8.2-1.5.6-2.2.9-.7.4-1.3.8-2 1.2-2.7 1.5-5 3.6-7 6-1 1.2-1.9 2.4-2.7 3.7-.8 1.3-1.6 2.7-2.1 4.1 1.2-2.8 3-5.3 5.1-7.6 2-2.3 4.3-4.3 7-5.8.7-.4 1.3-.8 2-1.2.7-.4 1.3-.7 2-.9.7-.2 1.4-.1 2.1.1s1.3.7 1.8 1.2c1 .9 2 1.9 2.8 3-1 .3-2 .5-2.8.7-.2 0-.5 0-.7-.1-1.3-.1-2.6.2-3.8.4-1.2.3-2.4.7-3.6 1.2-1.1.5-2.3 1.1-3.3 1.7-1.1.7-2.1 1.3-3.1 2.1-2 1.5-3.9 3.1-5.5 5 .4-.2.7-.5 1.1-.7 2.2.4 4.4.5 6.6.5 2.3 0 4.6-.3 6.8-.9 2.2-.6 4.3-1.5 6.3-2.6.5-.3 1-.6 1.5-.8.5-.3 1-.6 1.4-1 .5-.4.9-.8 1.2-1.2.1-.1.2-.3.2-.4.2.1.4.2.5.3.1.1.2.1.3 0 .1-.1.2-.2.1-.4-.1-.1-.1-.2-.2-.3 1.1.1 2.8.3 4.6.3.6 0 1.3 0 1.9-.1.2 0 .3-.2.3-.3.2.2.1 0-.1.1zm-7.6-.6c-.3-.2-.5-.4-.8-.7h.4c.1.3.2.5.4.7zm-1.6-2.1c.2.3.5.6.7.9-.5 0-.9 0-1.2-.1-.4-.2-.8-.3-1.2-.4.6-.1 1.1-.3 1.7-.4zm1.4 3.5c-.3.4-.8.8-1.2 1.1s-.9.6-1.4.9-1 .6-1.5.8c-2 1.1-4.1 1.9-6.2 2.6-2.2.6-4.4.9-6.6 1.1-2.2.1-4.4 0-6.5-.1 1.7-1.1 3.4-2.1 5.1-3.1 2.1-1.2 4.2-2.4 6.4-3.3 1.1-.5 2.2-.9 3.3-1.2l2.4-.6h.8c1.2 0 2.4.2 3.5.5.8.2 1.6.6 2.3 1-.2 0-.3.1-.4.3z" fill="#000000" stroke-width="none" opacity="1"></path></g></g></g><g id="svga-group-facehighlight-single"></g><g id="svga-group-eyebrows-left-move" transform="matrix(1,0,0,1,0,0)"><g id="svga-group-eyebrows-left-rotate" transform="matrix(1,1.7453292519943295e-9,-1.7453292519943295e-9,1,1.3491613515270728e-7,-1.3681636801265995e-7)"><g id="svga-group-eyebrows-left"><path id="SvgjsPath10173" d="M64.67 79.76c2.13-1.22 4.29-2.43 6.52-3.32.55-.23 1.11-.42 1.66-.55l.4-.08c.11 0 .2-.01.34 0 .13 0 .26.02.4.04.14.01.28.04.42.07 1.15.2 2.32.52 3.48.86 1.17.34 2.32.75 3.47 1.15 1.15.4 2.32.76 3.51 1.05 1.19.29 2.38.56 3.6.77 1.21.22 2.43.41 3.69.49l.07-.22c-1.07-.71-2.19-1.28-3.31-1.81-1.13-.54-2.28-1-3.44-1.43-1.16-.42-2.35-.77-3.56-1.04-1.21-.26-2.42-.5-3.64-.75-1.22-.24-2.44-.47-3.72-.59l-.49-.03c-.16-.01-.33-.01-.51 0-.17 0-.38.03-.57.07l-.49.15c-.63.22-1.21.49-1.76.79-1.11.6-2.16 1.27-3.19 1.97a50.2 50.2 0 0 0-3 2.2l.12.21z" fill="#2a232b" stroke-width="none" opacity="1"></path></g></g></g><g id="svga-group-eyebrows-right-move" transform="matrix(1,0,0,1,0,0)"><g id="svga-group-eyebrows-right-rotate" transform="matrix(1,1.7453292519943295e-9,-1.7453292519943295e-9,1,1.3646366880948335e-7,-2.1346249923226424e-7)"><g id="svga-group-eyebrows-right"><path id="SvgjsPath10174" d="M134.94 78.92c-2.06-.91-4.15-1.81-6.28-2.42-.53-.16-1.06-.28-1.57-.35l-.37-.04c-.1.01-.19.01-.31.03-.11.01-.24.04-.37.07-.12.02-.25.06-.38.09-1.04.27-2.1.64-3.14 1.03-1.05.39-2.08.84-3.11 1.29-1.03.45-2.08.85-3.15 1.2-1.07.35-2.15.68-3.25.96-1.1.29-2.21.55-3.36.72l-.08-.19c.93-.71 1.91-1.3 2.91-1.86 1-.56 2.02-1.06 3.05-1.53 1.04-.46 2.1-.86 3.19-1.19 1.09-.33 2.19-.63 3.29-.94 1.1-.31 2.21-.61 3.38-.81.15-.02.29-.05.45-.06.15-.02.31-.03.47-.04.15-.01.35 0 .53.01l.46.09c.6.15 1.15.34 1.69.56 1.07.44 2.09.95 3.1 1.49 1 .54 1.98 1.11 2.95 1.71l-.1.18z" fill="#2a232b" stroke-width="none" opacity="1"></path></g></g></g><g id="svga-group-nose-single-move" transform="matrix(1,0,0,1,0,0)"><g id="svga-group-nose-single"><path id="SvgjsPath10163" d="M109.52 109.12c-.37-.88-.94-1.63-1.59-2.29.5.77.95 1.58 1.22 2.42.13.42.21.86.14 1.25-.04.2-.1.36-.23.53-.12.17-.25.34-.41.47-.61.58-1.49.8-2.35.68-.43-.05-.87-.17-1.28-.35-.39-.14-.76-.35-1.13-.54.33-.49.63-1.01.89-1.55-.86.8-1.66 1.61-2.52 2.32-.43.35-.86.7-1.32.96-.45.27-.94.48-1.33.46-.1.01-.18-.02-.27-.03-.08-.05-.15-.05-.26-.14-.21-.13-.43-.31-.65-.48-.44-.34-.87-.72-1.31-1.08-.87-.74-1.75-1.48-2.69-2.17.44.7.95 1.34 1.47 1.97-.44.2-.89.36-1.34.46-.56.11-1.15.13-1.62-.09-.95-.47-1.51-1.61-1.35-2.58.04-.25.12-.44.26-.65.15-.23.32-.46.49-.69.35-.45.72-.9 1.11-1.33l.58-.65c.23-.25.4-.49.58-.74.36-.5.68-1.03.94-1.61.26-.57.42-1.23.52-1.81.1-.59.2-1.18.26-1.77.13-1.18.24-2.36.27-3.55.08-2.37.02-4.76-.45-7.08.05 2.36-.12 4.7-.35 7.03-.13 1.16-.26 2.33-.44 3.48-.09.58-.18 1.15-.28 1.72-.11.58-.23 1.07-.47 1.57-.22.5-.5.99-.82 1.45-.16.23-.33.47-.5.65-.2.23-.39.45-.58.68-.38.46-.74.94-1.09 1.43-.17.25-.35.5-.5.77-.18.29-.3.67-.32 1-.11 1.38.74 2.67 1.98 3.12.64.2 1.29.1 1.86-.1.47-.16.9-.4 1.31-.67.21.25.41.5.63.74.39.44.8.84 1.24 1.25.22.2.45.39.72.57.11.09.32.19.5.27.19.05.39.1.58.1.77 0 1.36-.33 1.88-.66.51-.36.96-.75 1.36-1.2.39-.42.74-.87 1.06-1.34.66.58 1.44 1.09 2.36 1.27.47.1.98.11 1.46 0 .48-.12.94-.36 1.31-.7.19-.17.34-.37.48-.57.15-.2.26-.48.28-.73.03-.54-.1-1.03-.29-1.47z" fill="#c5796d" stroke-width="none" opacity="1" stroke="none"></path></g></g><g id="svga-group-hair-front"><path id="SvgjsPath10310" d="M185.9 135.4c.4-.1.6-.7.1-.8-12.8-3.5-1.1-13.1-3.6-20.4-1.6-4.7-6.6-5.4-9.4-8.9-3.6-4.6 3.6-10.8 4.5-15.6.8-4.3-2-8.2-3.5-12.1.3-1.8.6-3.7 1-5.5.5-2.4.9-4.8.8-7.2.1-.4.2-.9.3-1.4 1-5.6-1.1-11.5-5.6-15.1-2.3-1.9-4.8-2.9-7.5-3.3 0-1-.1-1.9-.4-2.8-.6-1.9-1.7-3.5-3.2-4.8-1.5-1.3-3.3-2.2-5.2-2.7-3.3-.8-7.4.8-10.3-1.5-3.6-2.9-4-8.1-8.2-10.8-4.2-2.6-8.6-2.7-13-.8 0 0-.1 0-.1.1-1.6-1-3.3-1.6-5.1-1.9-1.8-.2-3.4.2-5.1.2-1.2 0-2.2-.2-3.2-.5-.3-.2-.6-.3-.9-.5-.9-.4-1.9-.7-2.9-.9-.7-.2-1.3-.3-1.9-.4-4.2-.6-8.6.4-12.2 3.7-2.8 2.5-4.7 5.3-8.7 5.6C73.8 24.8 61 29.5 62 38.6v.4c-4-1.9-10.2-1.9-13.5-1.1-3.4.8-6.7 2.8-8.1 6.2-1.2 2.9-1.1 5.3-4.5 6.7-2 .8-4.3.8-6.3 1.8-2.5 1.2-5.1 3.6-5 6.7.1 1.1.6 2.1 1.2 3.1.5.7 1.2 1.2 1.7 1.9 1.3 1.9 2.6 5.6 1.5 7.7-.8 1.5-2.2 2-2.4 3.8-.3 2 1.1 2.8 1.2 4.7.2 2.8-3.4 4.2-2.1 7.1.2.4.7.2.8-.1.8-2.4 3.4-3.7 4-6.1.2-.7 0-1.2 0-1.9-.2-.5-.5-1-.9-1.5-.6-2.2 0-3.9 1.6-5 1-1.9 2.4-2.6 1.9-5.1-.6-2.9-3.5-3.8-4.8-6.2-5.3-8.8 11.4-6.7 14-11.6 1-2 .1-3.3 2-5.4 1.6-1.9 4.2-2.5 6.6-2.8 1.4-.1 3.1-.2 4.7-.1-3.3.4-6.6 1.7-8.8 3.5-1.8 1.5-3.2 3.4-4.2 5.5-.4.3-.9.7-1.3 1.1-2.5 2.5-4.4 5.8-4.4 9.4 0 4.6 3.2 8.1 4.3 12.4.1.5.2.9.2 1.4-.7 2-2 3.6-3.6 5-4.1.8-8.2 3.7-10.8 7.3-3.8 2.5-6.9 5.5-7.6 10.4-.7 4.6 1.1 9.1 4.7 12.1 2.3 1.9 5.5 3.2 7.1 5.8.1.1.1.3.2.4-3.6 5.5-12.3 9.9-13.9 16.5-.8 3.4.1 7.2 2.4 9.9 2.7 3.1 7.3 3.3 4.8 9.4-.5 1.2-1.1 1.5-1.1 2.9 0 .5.7.7.9.2 1.9-3.5 6.8-5.1 3.8-9.8-1.7-2.6-5.2-3.2-6.7-6.1-1.4-2.6-.8-5.1.6-7.3.6 6 6.3 11.7 12.2 10 2.3 2.6 3.8 5.2 1.2 9-1.4 2.1-4.5 4.8-3.4 7.7 1.1 3 4.6 3.6 7.5 2.7 1.6 2.4 4 4.4 6.6 5.5.7 1.8 1.7 3.4 3.4 4.4 2.1 1.3 6 1.9 7.1-1 .3-.7-.4-1.4-1.1-1.4-2 0-3.4.7-5.1-.9l-.3-.3c2.4 0 4.6-1 6.4-3.5 1.6-2.2 2.3-4.9 2.1-7.5.8 1.2 1.7 2.2 2.8 2.8 1.7 1 4.1 1.6 6 .6 1.5-.8 2.7-2.9 1.7-4.5-.4-.6-1.4-.7-1.8 0-.3.5-.6 1-1 1.3-1.4-.2-1.6-3.3-1.3-4.5.3-1.2 2.2-2.2 3.1-2.9 1.2-.9 2.4-1.3 3.3-2.6 1.7-2.2 1.8-5.2.8-7.7-1-2.7-3.1-4.6-5.4-6.1-2.6-1.7-5-2.7-6-5.9-1-3.3.6-6.2 1.2-9.3v-.3c1-1 1.7-2.1 2-3.5 1.3-7.3-10-9.2-8.2-16 .2-.8.6-1.5 1-2.1.3-.4.6-.7 1-1.1 1-.9 2.3-1.7 3.4-2.5 1.8-1.1 3.9-1.9 5.9-3 3.3-1.7 5.6-3.8 5.8-7.7.2-4.5-2.5-8.1-4.5-11.8-4.4-8.2.7-14.6 7.8-18.1.6-.1 1.2-.3 1.8-.6.2.1.5 0 .7-.1.2-.2.4-.3.6-.5h.2c7.6-4.3 14.9-10.1 24.2-8.2 5.3 1.1 10.9 4.6 9.7 10.8-.7 3.5-2.2 6.8-2 10.4.3 5.8 5.1 8.9 10.4 9.5 2.7.3 5.4-.1 8.1-.4 6.8 1.7 13 5.9 11.7 14.1-1.1 6.7-7.6 11-9.5 17.5-.6 2.2-.7 4.5-.1 6.7 0 1.1.2 2.2.6 3.3 1 2.4 2.9 4 4.6 5.8 4.6 5-.3 8.3-4 11.6-2 1.8-3.8 4.3-4.3 6.9-.4.4-.9.9-1.2 1.4-2.1 3.3-2 9.9 2.9 10.5.7.1 1-1 .4-1.3-2.2-1-2.3-3.6-1.5-5.8.3.5.6 1 1 1.5.9 1 1.9 1.6 3 2.3 2.4 1.7 2.5 4 2 6.7-.1.3-.1.6-.2.9 0 .1 0 .1-.1.2-.6 2.3-1.4 4.3-.6 6.8.4 1.1 1 2 1.8 2.7-1.9-.1-4-1.6-4.9-3.6-.4-.7-1.4-.2-1.3.5 1.2 5.4 7 7.1 10.6 4.1h.2c2.3 0 4.2.1 6.1.8 2.7 1.9 5.7 3.1 9.2 2.6 3 .1 6.2-.6 8.8-1.6 5.1-1.5 9.9-6.8 9.7-11.8 3.9 3.2 10.8 2.6 11.1-4.2.1-1.1-1.4-1.4-1.9-.5-1.5 3.2-3.8 2.9-7-1.1.4-1.1.8-2.1 1.3-3.1.4-1 .9-2 1.1-3.1.4-2.5-.2-4.6-2-6.4-.6-.6-1.3-1.1-2-1.6-.1-.2-.3-.4-.4-.6-.7-1.6-1.5-3.2-2.2-4.8.7-1.1 1.3-2.4 1.7-3.7 1.5-2.6 2.3-5.5 2.7-8.3.1-1 .2-2.2.1-3.3.2.3.4.5.6.8 1.4 2.7-.4 6-1 8.7-1.3 6.3 2.5 12.2 8.8 11.3zM32.3 114c-2.1-2.5-5.4-3.9-7.9-6.5-3.7-3.7-4-9.6-1-13.8-.8 1.7-1 3.5-.5 5.5 1.3 4.6 5.5 6.9 8.5 10.2.4.5.8.9 1.1 1.3.3 1.2.2 2.3-.2 3.3zm34.6-56.8c-3.1 4.2-3.4 8.6-1.3 13.3 1.4 3.1 3.7 5.8 4.5 9.2.9 3.7-1 5.9-3.5 7.5.3-.6.6-1.3.8-2 1.1-3.7.7-7.4-1.4-10.4 0-.1-.1-.1-.1-.2-2.4-5.2-3.7-9.5-1.3-15 .2-.4.1-.9-.2-1.2 1.2-1.3 2.5-2.5 4.2-3.4.2-.1.3-.2.5-.3-.9.8-1.6 1.6-2.2 2.5zm48.8 9c-1.3-3.2-.3-5.9.8-9 1.3-3.7 2.7-7 .7-10.7-5-9.1-15.2-9.5-24.3-6.2.7-.5 1.3-1 2-1.5 3.5-1.4 7.2-2.2 11-2 3.7.2 7.4 1.2 10.5 3.3 2 2.9 3.8 5.7 3.9 9.4.1 4-1.9 7.6-2.2 11.5-.4 4.4 1.3 8.1 4.8 10.1-3.3-.3-6-1.7-7.2-4.9z" fill="#131210" stroke-width="none" opacity="1"></path><path id="SvgjsPath10311" d="M148.4 121.5c-1-.8-2.1-1.3-3.2-1.8s-2.3-.8-3.4-1.1c-1.1-.3-2.2-.6-3.2-1-2-.8-3.8-1.8-4.7-3.6-.9-1.7-.9-3.9-.3-5.9.6-2.1 1.7-3.9 3-5.8 2.6-3.6 5.8-6.9 8.3-10.9.6-1 1.2-2.1 1.6-3.1.4-1.1.8-2.2 1-3.4.5-2.3.5-4.8-.2-7.1-.4-1.2-.9-2.2-1.6-3.2l-.6-.7-.6-.6c-.4-.4-.9-.8-1.4-1.1-2.1-1.2-4.4-1.7-6.8-1.7-4.7-.1-9.1 1.6-13.6 1.5-2.2-.1-4.5-.6-6.2-1.9-.8-.7-1.5-1.5-1.9-2.5-.3-1-.4-2.1-.2-3.1.3-2.1 1.5-4 2.8-5.9 1.2-1.9 2.7-3.8 3.3-6.2.3-1.2.4-2.4.4-3.7-.1-1.2-.4-2.4-.8-3.6-.8-2.3-2.3-4.3-4.1-5.9-1.8-1.6-4.1-2.7-6.4-3.3-2.3-.6-4.8-.6-7.1-.3-4.7.6-9.1 2.7-12.8 5.4-3.7 2.7-6.9 6-10 9.4l.1.1c3.4-3.1 6.7-6.2 10.5-8.7 1.9-1.2 3.8-2.3 5.9-3.2 2.1-.8 4.2-1.3 6.4-1.6 4.3-.5 8.9.5 12.1 3.4.8.7 1.5 1.5 2.1 2.4.6.9 1.1 1.8 1.5 2.8.8 2 1 4.2.5 6.2s-1.7 3.9-2.9 5.9c-1.2 1.9-2.4 4.1-2.7 6.5-.2 1.2 0 2.5.4 3.6.5 1.1 1.3 2.1 2.3 2.8 2 1.4 4.4 1.8 6.7 1.9 4.7 0 9.1-1.6 13.6-1.4 2.2.1 4.5.5 6.3 1.7.4.3.9.6 1.3 1l.6.6.5.6c.6.9 1.1 1.9 1.3 2.9.5 2.1.4 4.3-.1 6.5-.5 2.1-1.4 4.1-2.7 6-2.4 3.7-5.7 6.9-8.5 10.7-1.4 1.9-2.6 3.9-3.4 6.3-.4 1.2-.6 2.4-.6 3.7 0 1.3.3 2.6.9 3.8.6 1.2 1.5 2.2 2.6 2.9 1 .7 2.2 1.3 3.3 1.7 2.2.8 4.5 1.3 6.5 2.1s3.9 2 4.8 3.7c.4.8.6 1.8.5 2.7s-.6 1.8-1.2 2.6c-1.3 1.6-3.2 2.7-5.2 3.9-1 .6-2 1.2-2.9 2-.9.8-1.8 1.8-2.3 2.9-.6 1.1-.9 2.4-.8 3.7.1.7.3 1.3.6 1.9.4.6.8 1.1 1.3 1.5 2 1.6 4.4 2 6.1 3.2.9.6 1.5 1.4 1.7 2.4s0 2.1-.4 3.1c-.9 2-2.9 3.4-4.8 4.6l.1.2c1.9-1.1 4-2.4 5.2-4.5.6-1.1.9-2.3.7-3.5-.2-1.3-1-2.4-1.9-3.1-1.9-1.5-4.3-2-5.8-3.4-.8-.7-1.2-1.5-1.3-2.5-.1-.9.2-2 .7-2.9 1-1.8 2.8-3 4.8-4.1 1-.6 2-1.1 3-1.8s2-1.5 2.8-2.4c.8-1 1.5-2.1 1.7-3.5.2-1.3 0-2.8-.6-4-.7-1.1-1.6-2.1-2.6-2.8zM67.1 56.3c1.1-.8 2.4-1.5 3.7-2.1 2.6-1.2 5.5-1.8 8.3-2.6v-.2c-2.9.4-5.8.8-8.7 1.8-2.8 1-5.6 2.6-7.4 5.2-.9 1.2-1.6 2.7-2 4.2-.3 1.5-.3 3.2.2 4.8.5 1.5 1.4 2.9 2.3 4.1.9 1.2 2 2.2 3 3.3 1 1 2 2.1 2.8 3.2.8 1.1 1.4 2.4 1.5 3.7.2 1.3-.2 2.7-.9 3.9-.7 1.2-1.8 2.2-2.9 3.1-2.3 1.7-5.1 2.8-7.5 4.6-1.2.9-2.3 1.9-3.1 3.2-.8 1.3-1.4 2.8-1.2 4.4.1 1.6 1 3.2 2.1 4.2 1.1 1.1 2.5 1.9 3.7 2.6 1.3.8 2.5 1.5 3.5 2.4.3.2.4.5.7.7.2.2.4.5.5.8.2.5.4 1.1.4 1.7 0 1.2-.6 2.3-1.5 3.2-.9.9-2.1 1.7-3.3 2.3-.6.3-1.2.6-1.9.9-.7.3-1.4.7-2 1.1-1.3.8-2.6 1.8-3.6 3.2-.5.7-.9 1.5-1.1 2.4-.2.9-.1 1.8.1 2.7.5 1.8 1.8 2.9 2.9 3.9 1.1 1 2.1 1.9 2.7 3 .6 1.1.7 2.4.5 3.7-.4 2.7-2.1 5.3-2.3 8.5 0 .8.1 1.6.3 2.3.3.8.8 1.4 1.4 1.9.6.5 1.3.9 2.1 1 .8.2 1.6 0 2.2-.5l-.1-.2c-1.3.7-2.8.1-3.7-.9-.5-.5-.8-1.1-1-1.7-.2-.6-.2-1.3-.1-2 .3-2.8 2.1-5.2 2.8-8.2.4-1.5.4-3.3-.4-4.9-.8-1.5-2-2.6-3-3.6s-1.9-2-2.2-3.1c-.3-1.1 0-2.2.7-3.2s1.8-1.9 3-2.6c.6-.4 1.2-.7 1.8-1 .6-.3 1.3-.7 2-1 1.3-.7 2.6-1.6 3.8-2.8.6-.6 1.1-1.2 1.5-2 .4-.8.6-1.7.6-2.6 0-.9-.3-1.7-.7-2.5-.2-.4-.5-.7-.7-1.1l-.9-.9c-1.2-1-2.6-1.7-3.9-2.4s-2.5-1.4-3.6-2.2c-1-.9-1.8-2-1.9-3.3-.2-1.3.2-2.7.9-3.9.7-1.2 1.7-2.3 2.8-3.1 2.3-1.8 5-2.8 7.5-4.6 1.2-.9 2.3-1.9 3.2-3.2.9-1.2 1.4-2.8 1.4-4.4 0-1.6-.7-3.1-1.5-4.4-.8-1.3-1.8-2.4-2.8-3.6-2-2.2-4-4.2-4.9-6.8-.9-2.5-.2-5.3 1.3-7.6.6-.9 1.5-1.9 2.6-2.8zM53 147.5c-.5-1.4-.5-2.9-.2-4.4.2-1.5.5-3.1.4-4.7-.1-.8-.3-1.7-.7-2.5-.4-.8-1.1-1.5-1.8-1.9-1.4-1-2.8-1.5-3.8-2.4-1-.8-1.3-2-1-3.3.3-1.2 1-2.4 2-3.3 1-.9 2.3-1.7 3.6-2.5.7-.4 1.3-.9 2-1.4.7-.5 1.3-1.1 1.8-1.8 1.1-1.3 2-3 1.8-5-.1-1-.4-1.8-.9-2.6s-1.2-1.4-1.9-1.9c-1.4-1-2.8-1.6-4.2-2.3-1.3-.7-2.6-1.4-3.5-2.4-.9-1-1.3-2.3-1.3-3.7 0-1.4.4-2.8 1.1-4.1.7-1.3 1.6-2.4 2.7-3.4 2.2-2.1 4.8-3.8 7-6.1 1.1-1.2 2-2.4 2.6-3.9.7-1.4 1-3.1.7-4.7-.2-1.6-1.1-3.1-2.1-4.2-1-1-2.1-2-3.3-3-1.2-1-2.3-2-3.1-3.2-.8-1.2-1.4-2.5-1.7-3.8-.5-2.8.3-5.7 1.8-8.2 1.5-2.5 3.7-4.5 6.3-5.8 2.7-1.3 5.6-2 8.6-2.2 3-.3 6.1-.2 9.1 0v-.2c-3-.5-6.1-.9-9.2-.8-3.1 0-6.3.6-9.2 1.9-1.5.6-2.9 1.5-4.1 2.5-1.2 1.1-2.3 2.3-3.1 3.7-1.7 2.8-2.6 6.1-1.9 9.4.3 1.6 1.2 3.2 2.2 4.4 1.1 1.2 2.3 2.2 3.5 3.2 1.2.9 2.4 1.8 3.5 2.9 1 1.1 1.8 2.3 2.1 3.8.2 1.4 0 3-.6 4.3-.6 1.3-1.5 2.6-2.6 3.7-2.1 2.2-4.8 3.7-7.2 5.7-2.4 2-4.5 4.8-4.7 8.3-.1 1.7.4 3.5 1.6 4.8 1.1 1.3 2.6 2.2 4 2.9 1.4.7 2.8 1.4 3.9 2.2.5.4 1 .9 1.3 1.4.3.5.5 1.1.5 1.7.1 1.2-.5 2.4-1.4 3.5-.8 1.1-2 1.9-3.3 2.7-1.3.8-2.6 1.7-3.9 2.8-1.2 1.2-2.2 2.7-2.5 4.5-.2.9-.1 1.8.2 2.8s.9 1.7 1.6 2.2c1.4 1.1 2.9 1.5 4.1 2.3 1.2.7 1.8 1.9 2 3.3.2 1.4 0 2.9-.1 4.5-.2 1.6 0 3.2.6 4.7.3.7.8 1.4 1.4 2 .6.5 1.5.8 2.2.7v-.2c-1.4-.2-2.5-1.5-2.9-2.9zm111.2-22c.7-1.1 1.2-2.3 1.6-3.6.3-1.3.4-2.6.2-4s-.9-2.7-2-3.7-2.4-1.5-3.7-1.8c-1.3-.3-2.6-.4-3.8-.6-1.2-.1-2.4-.3-3.4-.6s-1.9-.9-2.4-1.7c-1.1-1.6-.8-4.1.2-5.9 1.1-1.9 2.8-3.6 4.5-5.4s3.3-3.7 4.8-5.7c3-4 5.5-8.6 6.2-13.7.7-5.1-.5-10.5-3.9-14.5-.8-1-1.8-1.9-2.9-2.6-1.1-.7-2.3-1.3-3.6-1.6-2.5-.7-5.1-.6-7.6-.1-5 .9-9.3 3.5-13.9 5-2.3.7-4.7 1.4-7.1 1-1.2-.2-2.2-.9-2.9-1.8-.7-.9-1-2.1-1.2-3.3-.2-2.4.7-4.7 1.6-7 .9-2.3 1.5-4.8 1.7-7.3.4-5-.7-10.2-3.6-14.5-3-4.2-7.8-7-12.8-7.9-5-1-10.2-.5-14.9 1.4-4.7 1.9-8.8 5-12.1 8.7-3.4 3.7-6.1 7.9-8.2 12.3l.2.1c2.5-4.2 5.3-8.2 8.8-11.7 3.4-3.5 7.5-6.2 11.9-8 4.5-1.7 9.4-2.1 14-1.1 2.3.5 4.6 1.3 6.6 2.5s3.8 2.8 5.2 4.7c2.8 3.8 4.1 8.6 3.9 13.4-.1 2.4-.6 4.8-1.4 7.1-.8 2.3-1.7 4.7-1.4 7.3.1 1.3.5 2.5 1.3 3.6s2 1.8 3.2 2c2.6.5 5.1-.2 7.4-.9 4.7-1.5 9.1-3.8 13.9-4.5 2.4-.4 4.8-.3 7 .3 1.1.3 2.1.9 3.1 1.5.9.7 1.8 1.5 2.5 2.4 2.9 3.7 3.9 8.7 3.2 13.2-.7 4.7-3.1 8.9-6.1 12.7-1.5 1.9-3.1 3.7-4.7 5.5-1.6 1.8-3.5 3.5-4.9 5.9-.6 1.2-1.1 2.6-1.1 4-.1 1.4.2 2.9 1.1 4.1.9 1.2 2.2 2.1 3.5 2.5 1.3.4 2.6.5 3.8.6 2.4.2 4.9.3 6.4 1.8.8.7 1.3 1.6 1.5 2.7.2 1.1.1 2.2-.1 3.3-.3 1.1-.7 2.2-1.3 3.2-.6 1-1.4 1.9-2.1 2.8-1.6 1.8-3.5 3.4-5.1 5.4-.8 1-1.5 2-2 3.2-.5 1.2-.8 2.4-.8 3.7s.2 2.6.7 3.7c.6 1.1 1.5 2.1 2.7 2.6l.1-.2c-1.1-.6-1.9-1.5-2.3-2.6-.4-1.1-.6-2.3-.5-3.5.1-1.2.4-2.4.9-3.4s1.2-2 2-2.9c1.6-1.8 3.5-3.3 5.3-5.1 1.3-.9 2.1-1.9 2.8-3zM67.4 40.7c-.5-2.8-.7-5.6-.2-8.2.1-.6.3-1.3.6-1.9.2-.6.5-1.2.8-1.8.7-1.1 1.6-2.1 2.6-2.9 1-.8 2.2-1.4 3.5-1.7.7-.1 1.3-.1 2-.1.7.1 1.3.3 2 .5 1.3.4 2.7 1 4.2 1 .8 0 1.5-.3 2.2-.7.2-.1.3-.2.5-.3l.4-.4c.3-.2.5-.6.8-.9.9-1.2 1.5-2.6 2-3.9.6-1.3 1.1-2.5 1.9-3.4.4-.4.8-.7 1.3-.9.5-.2 1-.2 1.6 0 1.1.3 2.2 1 3.4 1.8.6.4 1.2.8 2 1.1.7.3 1.5.6 2.4.6.9.1 1.7-.1 2.5-.4.7-.3 1.4-.6 2-1l1.8-1.1c.6-.3 1.2-.6 1.8-.8 1.2-.3 2.7-.4 3.7.7l.2-.1c-.4-.6-1-1.1-1.8-1.4-.7-.2-1.5-.3-2.3-.2s-1.5.3-2.2.6c-.7.3-1.3.6-1.9.9-1.2.6-2.5 1-3.6.9-1.1-.1-2.2-.8-3.3-1.6-1.2-.7-2.4-1.7-4.1-2.1-1.7-.4-3.7.4-4.8 1.7-2 2.6-2.2 5.6-3.5 7.9-.6 1.1-1.7 2.1-3 2.2-1.3.1-2.7-.4-4-.9-1.3-.5-2.8-1-4.3-.9-1.5.1-3 .6-4.3 1.4-1.3.8-2.4 2-3.1 3.3-.8 1.4-1.2 2.8-1.4 4.3-.3 3 .3 5.9 1.5 8.5l.1.2zM22.1 81.4c-1.4-.9-2.3-2.4-2.6-3.9-.3-1.5.4-3.1 1.4-4.2.5-.5 1.1-1 1.8-1.2.7-.3 1.5-.4 2.3-.5 1.6-.2 4-.8 5-3.1.2-.6.3-1.2.2-1.8-.1-.6-.4-1.2-.7-1.6-.6-.8-1.4-1.4-1.9-1.9s-.9-1.1-1.2-1.8c-.3-.7-.4-1.4-.5-2.2-.1-1.5.4-3 1.2-4.3.4-.6 1-1.2 1.6-1.6.6-.4 1.4-.7 2.2-1 1.6-.5 3.3-.8 4.9-1.2 1.7-.4 3.4-1.2 4.5-2.8 1-1.5 1.2-3.4 1.9-4.8s1.9-2.5 3.3-3.3c1.4-.8 2.9-1.4 4.4-1.7s3.2-.3 4.8-.1c3.3.4 6.5 1.5 9.8 2.5l.1-.2c-3-1.6-6.1-3.2-9.6-3.8-3.4-.7-7.4-.2-10.4 1.9-1.5 1.1-2.7 2.5-3.4 4.2-.7 1.7-.6 3.5-1.5 4.9-.8 1.4-2.4 2.1-4.1 2.4-1.6.4-3.3.4-5.1.8-.9.2-1.7.5-2.6.9-.9.4-1.6 1.1-2.2 1.8-1.2 1.5-1.8 3.4-1.8 5.3 0 1 .1 1.9.5 2.8.3.9.9 1.8 1.5 2.5s1.3 1.2 1.7 1.7c.4.5.4.9.3 1.4-.2.5-.7 1-1.3 1.3-.6.3-1.3.5-2.1.7s-1.6.5-2.5.9c-.9.4-1.7 1.1-2.3 1.8-1.2 1.5-1.7 3.6-1.1 5.4.5 1.8 1.8 3.3 3.5 3.9v-.1zM51.5 171c-.9.2-1.8-.1-2.6-.6-1.5-1.1-2.2-3-3.1-4.7-.5-.9-1.1-1.8-1.9-2.5-.8-.7-1.9-1.1-2.9-1.4-2.1-.4-4.1-.3-5.9-.5-.9-.1-1.8-.3-2.4-.8-.6-.4-1.1-1.1-1.3-1.9-.3-1.5.4-3.4 1.3-4.9 1-1.6 2.2-3.3 2.7-5.5.3-1.1.3-2.3-.1-3.5-.4-1.1-1.1-2.1-1.9-2.9-1.7-1.5-3.6-2.2-5.3-3.1-1.7-.8-3.4-1.7-4.4-3-1.1-1.3-1.4-3-.9-4.7.4-1.7 1.4-3.3 2.6-4.6 2.6-2.7 6.3-4.4 9.1-7.5 1.3-1.6 2.5-3.4 2.8-5.5.2-1.1.1-2.2-.2-3.2-.3-1-.9-2-1.6-2.8-2.8-3.1-7-4.1-9.4-7-1.2-1.4-1.9-3.3-1.8-5.2 0-1.9.6-3.8 1.6-5.4 1-1.6 2.4-3 3.9-4.2 1.5-1.2 3.2-2.2 4.9-3.1 1.7-1 3.4-2 4.9-3.5.7-.7 1.4-1.6 1.8-2.7.4-1 .6-2.2.5-3.3-.3-2.2-1.5-4-2.4-5.7-1-1.7-1.5-3.3-1.6-5.1-.1-3.6 1.7-7.2 4.3-9.9 2.6-2.7 6.2-4.3 9.9-5.3s7.7-1.4 11.5-1.8V45c-3.9.1-7.9.2-11.8 1-2 .4-3.9 1-5.7 1.8-1.8.8-3.6 1.9-5.1 3.4-1.5 1.4-2.7 3.1-3.6 5-.9 1.9-1.4 4-1.4 6.1 0 2.1.8 4.2 1.9 6 1 1.7 2.1 3.3 2.3 5 .3 1.7-.4 3.4-1.6 4.8-1.2 1.4-2.8 2.5-4.5 3.5-3.3 2.1-6.7 4.4-8.8 7.9-1 1.7-1.6 3.7-1.7 5.7-.1 2 .6 4.1 1.9 5.7 2.7 3.1 6.8 4.4 9.1 7.2.6.7 1 1.5 1.2 2.4.2.8.2 1.8 0 2.6-.4 1.8-1.4 3.4-2.6 4.7-2.5 2.7-6.2 4.3-9.2 7.2-1.5 1.5-2.7 3.3-3.2 5.4-.3 1.1-.4 2.2-.2 3.3.2 1.1.7 2.2 1.4 3.1.7.9 1.6 1.6 2.5 2.2.9.6 1.8 1 2.7 1.5 1.8.9 3.5 1.6 4.9 2.8 1.3 1.1 1.9 2.6 1.5 4.2-.4 1.6-1.4 3.2-2.4 5-.5.9-.9 1.9-1.2 2.9-.3 1-.4 2.2-.1 3.4.3 1.2 1 2.2 2 2.8 1 .6 2.1.9 3.2 1 2.1.2 4-.1 5.8.2.9.1 1.7.5 2.4 1s1.2 1.3 1.8 2.1c1 1.6 1.9 3.6 3.6 4.8.4.3.9.5 1.5.6.5.1 1.1.1 1.6-.1 1-.2 2-1 2.1-2.1h-.2c-.4 1.2-1.3 1.8-2.2 1.9zm132.9-92c-.4-.8-1.1-1.4-1.7-1.9-1.3-1-2.6-1.7-3.7-2.4-1.1-.8-1.8-1.7-2.1-2.9-.3-1.2-.2-2.5 0-3.9.4-2.8 1.6-5.6 1.6-8.8 0-3.2-1.2-6.2-2.9-8.7-1.8-2.5-4.2-4.4-7-5.7-2.8-1.2-5.7-1.8-8.7-1.8-3-.1-5.9.3-8.8 1.1-2.8.8-5.6 1.7-8.4 1.9-1.4.1-2.8-.1-4-.5-1.2-.5-2.3-1.3-3.1-2.4-1.7-2.1-2.5-4.9-3.1-7.7-.6-2.8-1.1-5.8-2.6-8.6-3-5.6-10.3-7.9-15.8-5.5l.1.2c5.6-1.7 11.9 1.1 14.3 6 1.2 2.5 1.6 5.3 2.2 8.2.6 2.9 1.5 5.9 3.5 8.4 1 1.2 2.4 2.2 3.9 2.6 1.5.5 3.1.6 4.6.3 3-.4 5.7-1.6 8.5-2.4 2.8-.8 5.7-1.2 8.6-1 2.9.1 5.7.9 8.2 2.2s4.6 3.3 6.2 5.6c1.5 2.3 2.4 5 2.4 7.8 0 2.7-1.2 5.4-1.8 8.4-.3 1.5-.5 3.1 0 4.8.2.8.6 1.6 1.1 2.3.5.7 1.2 1.3 1.8 1.7 1.3.9 2.6 1.5 3.6 2.3 1 .8 1.6 1.8 1.7 3 .1 1.2-.3 2.5-1 3.6-.6 1.1-1.6 2.2-2.6 3.2s-2.1 2.1-2.9 3.4c-.8 1.3-1.5 2.8-1.6 4.3 0 .8.1 1.6.4 2.3.3.8.9 1.4 1.5 1.8.6.5 1.4.8 2.1.8.8.1 1.6-.2 2.2-.7l-.1-.2c-1.2.8-2.8.4-3.8-.5-.5-.4-.9-1-1.1-1.6-.2-.6-.2-1.3-.2-2 .2-1.3.8-2.6 1.6-3.7s1.9-2.1 2.9-3.1c1.1-1 2.1-2.1 3-3.4.8-1.3 1.4-2.9 1.4-4.7.2-.4 0-1.3-.4-2.1zM138 25.7c1.1 1.5 2 3.5 3.5 4.9.8.7 1.7 1.3 2.8 1.5 1.1.2 2.2-.1 3.1-.7.9-.6 1.7-1.3 2.4-2s1.4-1.3 2.1-1.7c.7-.4 1.5-.6 2.1-.4.6.2 1.1.7 1.6 1.5.6.7 1 1.8 2.1 2.5.5.4 1.2.7 1.9.7s1.3-.2 1.9-.5c1.1-.6 1.8-1.6 2.1-2.7.3-1 .4-2.1.4-3.1h-.2c-.3 1-.6 1.9-1.1 2.7-.5.8-1.1 1.4-1.8 1.6-.8.3-1.4.1-1.9-.3-.5-.5-.9-1.3-1.5-2.2-.3-.5-.6-.9-1.1-1.4s-1.1-.8-1.7-1c-1.4-.3-2.7.2-3.6.8-.9.6-1.7 1.4-2.3 2.2-.6.8-1.2 1.5-1.9 2.1-.7.6-1.5 1-2.4 1-.9 0-1.8-.6-2.4-1.3-1.3-1.4-1.6-3.4-2.6-5.3-2.1-3.9-7.4-5.6-11.1-3.8l.1.2c3.8-.1 7.5 1.7 9.5 4.7zm39.2 109.1c-.8-.9-1.6-1.7-2.2-2.5-.3-.4-.6-.9-.8-1.4l-.2-.7c-.1-.2-.1-.5-.1-.8-.1-1 0-2.2.3-3.2.6-2.2 1.7-4.3 2.5-6.5.4-1.1.7-2.3.8-3.5.1-1.2-.1-2.4-.6-3.6-.9-2.3-2.8-4-4.4-5.6-1.6-1.6-3.3-3.3-4-5.3-.7-2-.5-4.2.3-6.2.7-2.1 1.8-4.1 2.9-6.2 1.1-2.1 1.9-4.4 2.2-6.9.1-1.2.1-2.5-.3-3.6-.3-1.2-1-2.3-1.9-3l-.1.1c.7.9 1.2 1.9 1.4 3.1.2 1.1.1 2.2-.1 3.3-.4 2.2-1.4 4.3-2.5 6.3-1.2 2-2.4 4.1-3.2 6.4-.4 1.2-.7 2.4-.8 3.7-.1 1.3.1 2.6.6 3.8 2.2 4.8 7.4 6.3 9.3 10.5.4 1 .6 2.2.5 3.3-.1 1.1-.4 2.2-.9 3.3-.8 2.2-2.1 4.2-2.9 6.4-.4 1.1-.7 2.4-.6 3.7 0 1.3.5 2.6 1.2 3.7 1.4 2.1 3.3 3.6 4 5.5.4.9.4 1.9 0 2.6-.4.8-1.2 1.4-2.1 1.9-1 .6-2.1 1.2-3 2.4-.9 1.1-1.3 2.7-1.1 4.1.3 2.6 1.5 4.7 1.8 6.8.3 2.1-.1 4.3-1.1 6.2-1.9 3.9-6.8 6.2-11.4 5.3l-.1.2c2.2.8 4.8.7 7.1-.1 2.3-.8 4.4-2.4 5.7-4.6 1.3-2.1 1.9-4.7 1.7-7.2-.1-1.3-.5-2.5-.9-3.6-.3-1.1-.7-2.2-.7-3.2-.1-1 .1-1.8.6-2.5s1.5-1.3 2.5-1.9c1-.6 2.2-1.4 2.8-2.9.7-1.4.4-3-.1-4.2-.5-1.5-1.3-2.5-2.1-3.4z" fill="#040303" stroke-width="none" opacity="1"></path></g><g id="svga-group-glasses-single-move" transform="matrix(1,0,0,1,0,0)"><g id="svga-group-glasses-single"></g></g></g></g></g><rect id="svga-credit-rect" width="200" height="15" x="0" y="185" fill="#ecf0f1" opacity="0.5" style="display: none;"></rect><text id="svga-credit-text" font-family="Avenir Next, Roboto, Helvetica, Arial, sans-serif" font-size="10px" text-anchor="start" font-weight="400" size="10px" anchor="start" weight="400" fill="#333333" x="33.43669891357422" y="182.60824704170227" style="display: none;"><tspan id="SvgjsTspan9976" dy="13" x="33.43669891357422">Created on AvatarMaker.com</tspan></text></g><defs id="SvgjsDefs9928"></defs></svg>